<svg xmlns="http://www.w3.org/2000/svg" viewBox="0 0 70.28 65.91"><defs><style>.a{fill:#5692f0;}</style></defs><title>appeals-expedite</title><path class="a" d="M14157.85,10760.47h-35.38l-2,5.91h39.38Zm-32.17-1.81h29l-1.47-4.34h-26Zm3.69-12,0.47,0.4a1.8,1.8,0,0,0,2.54-.2l14.55-17.09a1.8,1.8,0,0,0-.2-2.54l-0.47-.4a1.8,1.8,0,0,0-1.8-.3l-15.09-12.84a11,11,0,0,1-1.57,2.19l13.65,11.61a0.35,0.35,0,0,1,0,.49l-0.4.47a0.35,0.35,0,0,1-.49,0l-13.74-11.69a11,11,0,0,1-16.81-3.07l-7,8.2a1.8,1.8,0,0,0,.2,2.54l0.47,0.4a1.8,1.8,0,0,0,1.8.3l8.6,7.32-24.15,27.05a1.6,1.6,0,0,0,.14,2.3l4.92,4.18a1.6,1.6,0,0,0,2.3-.23l22.84-28.17,8.6,7.32A1.79,1.79,0,0,0,14129.38,10746.64Zm-9.68-30.2a8,8,0,1,0-8-8A8,8,0,0,0,14119.7,10716.44Zm4.79-11.21-1,.63a4.8,4.8,0,0,0-.48-0.61l0.84-.78A6,6,0,0,1,14124.49,10705.22Zm-2.13-1.95a5.94,5.94,0,0,1,.81.53l-0.7.91a4.82,4.82,0,0,0-.66-0.43Zm-1.88,2.12v3.29l1.86,1.33-0.67.94-2.34-1.68v-3.88h1.15Zm-0.91-2.83v1.15a4.73,4.73,0,1,0,4.7,5.23h-1.42l2-2,2,2h-1.46A5.88,5.88,0,1,1,14119.58,10702.58Z" transform="translate(-14089.57 -10700.47)"/></svg>