<svg xmlns="http://www.w3.org/2000/svg" viewBox="0 0 70.28 67.24"><defs><style>.a{fill:#5692f0;}.b{fill:none;}</style></defs><title>appeals-new</title><polygon class="a" points="68.28 61.33 32.9 61.33 30.9 67.24 70.28 67.24 68.28 61.33"/><polygon class="a" points="63.6 55.18 37.59 55.18 36.12 59.53 65.07 59.53 63.6 55.18"/><path class="b" d="M14054.52,10728.46a0.35,0.35,0,0,0,.49,0l0.4-.47a0.35,0.35,0,0,0,0-.49l-14.37-12.23a11,11,0,0,1-1,.84Z" transform="translate(-14003.49 -10699.14)"/><path class="a" d="M14060.65,10727.21l-0.47-.4a1.8,1.8,0,0,0-1.8-.3l-15.62-13.29a11.07,11.07,0,0,1-1.76,2l14.37,12.23a0.35,0.35,0,0,1,0,.49l-0.4.47a0.35,0.35,0,0,1-.49,0l-14.55-12.39a10.95,10.95,0,0,1-15.52-2.94l-7.45,8.75a1.8,1.8,0,0,0,.2,2.54l0.47,0.4a1.79,1.79,0,0,0,1.8.3l8.6,7.32-24.15,27.05a1.6,1.6,0,0,0,.14,2.3l4.92,4.18a1.6,1.6,0,0,0,2.3-.23l22.84-28.17,8.6,7.32a1.79,1.79,0,0,0,.59,1.72l0.47,0.4a1.8,1.8,0,0,0,2.54-.2l14.55-17.09A1.8,1.8,0,0,0,14060.65,10727.21Z" transform="translate(-14003.49 -10699.14)"/><path class="a" d="M14033.62,10715.11a8,8,0,1,0-8-8A8,8,0,0,0,14033.62,10715.11Zm1.7-3.47h-3.41v-1.34c0.26,0,.5-0.08.74-0.11v-3.45c-0.23,0-.47-0.07-0.71-0.11v-1.35h2.63v4.92c0.24,0,.48.06,0.74,0.11v1.34Zm-1.71-9a1,1,0,1,1-1.08,1A1,1,0,0,1,14033.61,10702.61Z" transform="translate(-14003.49 -10699.14)"/></svg>