<svg xmlns="http://www.w3.org/2000/svg" viewBox="0 0 49.72 60.59"><defs><style>.a{fill:#4d6892;}</style></defs><title>claims-status-icon</title><path class="a" d="M13874.33,10820.43h-21.67v4.36h20.51A10.9,10.9,0,0,1,13874.33,10820.43Zm8.46,15.86v31.43h4.36v-31.78A10.54,10.54,0,0,1,13882.79,10836.29Zm-9.56-9.53h-30.84V10878h38.43v-42.13A11,11,0,0,1,13873.22,10826.76Zm-10.93,35.29h-13.22v-2h13.22v2Zm4.72-5.79h-17.94v-2H13867v2Zm4-5.79h-22v-2h22v2Zm3.08-5.79h-25v-2h25v2Zm10-27.27a8,8,0,1,0,8,8A8,8,0,0,0,13884.11,10817.4Zm0,3.47a1,1,0,1,1-1.08,1A1,1,0,0,1,13884.1,10820.87Zm1.71,9h-3.41v-1.34c0.26,0,.5-0.08.74-0.11V10825c-0.23,0-.47-0.07-0.71-0.11v-1.35h2.63v4.92c0.24,0,.48.06,0.74,0.11v1.34Z" transform="translate(-13842.38 -10817.4)"/></svg>