<svg xmlns="http://www.w3.org/2000/svg" viewBox="0 0 50.61 50.61"><defs><style>.a{fill:#5692f0;}</style></defs><title>dispute-bill-icon</title><path class="a" d="M13868.57,10915.39a25.25,25.25,0,0,0-19.33,9l8.87,5.94c1.26-2.27,3.85-3.41,8.06-3.6v-3h4.92v3.06a36.34,36.34,0,0,1,8.06,1.41v7.65h-5.32l-0.76-3.51a10.19,10.19,0,0,0-3.42-.56v5.92l4.75,1.09c3.94,1,5.41,2.57,5.55,6.17l11.09,7.43A25.3,25.3,0,0,0,13868.57,10915.39Z" transform="translate(-13843.26 -10915.39)"/><path class="a" d="M13873.21,10947.65l-3.57-2.39v4.79C13872.32,10950,13873.15,10949.5,13873.21,10947.65Z" transform="translate(-13843.26 -10915.39)"/><path class="a" d="M13870.84,10955v2.66h-5V10955a31.5,31.5,0,0,1-8.42-1.81v-7.17h5.6l0.72,3.34a10.58,10.58,0,0,0,3.87.65v-6.11l-1.33-.89-3.1-.73c-3.89-1.11-5.48-2.28-5.91-5.31l-11.38-7.62a25.3,25.3,0,0,0,41.71,27.94l-8.66-5.8C13877.7,10953.77,13875.07,10954.88,13870.84,10955Z" transform="translate(-13843.26 -10915.39)"/><path class="a" d="M13867.66,10931.75h0c-2.5,0-3.43.56-3.43,2.42v0.22l3.47,2.32v-5Z" transform="translate(-13843.26 -10915.39)"/></svg>