<svg xmlns="http://www.w3.org/2000/svg" viewBox="0 0 59.79 53.33"><defs><style>.a{fill:none;}.b{fill:#fe4a49;}.c{fill:#2d2a30;}</style></defs><title>i</title><path class="a" d="M32.26,8.09q.39-.41.79-.77Q32.65,7.68,32.26,8.09Z"/><path class="a" d="M25.68,6.62c.23.17.45.34.67.53Q26,6.88,25.68,6.62Z"/><path class="a" d="M31.5,9c.19-.23.39-.46.58-.67C31.88,8.5,31.69,8.72,31.5,9Z"/><path class="a" d="M29.19,10.26c.24.34.47.69.7,1.06C29.67,11,29.43,10.6,29.19,10.26Z"/><path class="a" d="M29.9,11.32c.21-.37.42-.72.65-1.06C30.32,10.6,30.1,11,29.9,11.32Z"/><path class="a" d="M26.55,7.32q.42.37.83.77Q27,7.68,26.55,7.32Z"/><path class="a" d="M28.43,9.26q.27.33.54.69Q28.71,9.6,28.43,9.26Z"/><path class="a" d="M27.56,8.28q.32.33.62.68C28,8.72,27.77,8.5,27.56,8.28Z"/><path class="a" d="M30.75,10q.24-.36.5-.69Q31,9.6,30.75,10Z"/><path class="a" d="M33.26,7.14c.21-.18.42-.35.63-.51C33.68,6.79,33.47,7,33.26,7.14Z"/><path class="a" d="M39.17,4.25q.48-.1,1-.15Q39.65,4.16,39.17,4.25Z"/><path class="a" d="M37.22,4.81l.66-.22Z"/><path class="a" d="M38.2,4.49,39,4.3Z"/><path class="a" d="M34.19,6.42,34.81,6Z"/><path class="a" d="M35.08,5.83c.29-.18.59-.34.9-.49C35.67,5.48,35.38,5.65,35.08,5.83Z"/><path class="a" d="M36.07,5.29q.42-.2.84-.37Q36.48,5.09,36.07,5.29Z"/><path class="a" d="M11.28,5.66l.39-.2Z"/><path class="a" d="M12.41,5.12,12.79,5Z"/><path class="a" d="M13.69,4.64l.24-.08Z"/><path class="a" d="M15.1,4.27l.32-.05Z"/><path class="a" d="M40.4,4.07,41.14,4Z"/><path class="a" d="M10.23,6.29l.33-.21Z"/><path class="a" d="M9.24,7,9.3,7Z"/><path class="a" d="M16.3,4.09l.43,0Z"/><path class="a" d="M21.63,4.58l.69.23Z"/><path class="a" d="M22.61,4.92c.3.12.6.25.9.39C23.21,5.17,22.91,5,22.61,4.92Z"/><path class="a" d="M23.56,5.33c.31.15.62.32.92.5C24.18,5.65,23.87,5.48,23.56,5.33Z"/><path class="a" d="M24.74,6l.66.43Z"/><path class="a" d="M20.53,4.3l.79.19Z"/><path class="a" d="M18.37,4l.74.06Z"/><path class="a" d="M17.78,4h0Z"/><path class="a" d="M19.37,4.1q.49.06,1,.15C20,4.19,19.69,4.14,19.37,4.1Z"/><path class="a" d="M50.28,6.92l.13.09Z"/><path class="a" d="M5.75,11.18l.16-.27Z"/><path class="a" d="M6.42,10.09l.25-.36Z"/><path class="a" d="M7.18,9.06l.28-.34Z"/><path class="a" d="M5.08,12.63c0-.09.07-.19.11-.28Z"/><path class="a" d="M4.27,15.43c0-.16.06-.33.1-.49C4.33,15.1,4.3,15.26,4.27,15.43Z"/><path class="a" d="M4.6,14c0-.15.08-.3.13-.44C4.68,13.74,4.64,13.89,4.6,14Z"/><path class="a" d="M4.07,16.85c0-.15,0-.3.05-.45C4.11,16.55,4.08,16.7,4.07,16.85Z"/><path class="a" d="M53.28,26.71h0a17.61,17.61,0,0,0,2.51-8.38h0A17.61,17.61,0,0,1,53.28,26.71Z"/><path class="a" d="M41.74,4h0Z"/><path class="a" d="M52.06,28.71C44.9,39.64,29.89,49.33,29.89,49.33A107.77,107.77,0,0,1,16.95,39.19,107.76,107.76,0,0,0,29.89,49.33s15-9.69,22.17-20.62Z"/><path class="a" d="M8.32,7.82l-.26.26Z"/><path class="a" d="M16.95,39.19c-.61-.56-1.22-1.14-1.82-1.73C15.73,38.05,16.34,38.63,16.95,39.19Z"/><path class="a" d="M10.49,32.44q-.47-.58-.92-1.16Q10,31.87,10.49,32.44Z"/><path class="a" d="M13.93,36.26l-1.14-1.2Z"/><path class="a" d="M55.66,16.39c0,.15,0,.3.06.46C55.7,16.7,55.68,16.54,55.66,16.39Z"/><path class="a" d="M47.91,5.46l.42.21Z"/><path class="a" d="M46.77,5l.41.17Z"/><path class="a" d="M49,6.07l.37.22Z"/><path class="a" d="M45.62,4.56l.28.09Z"/><path class="a" d="M44.1,4.22l.34.06Z"/><path class="a" d="M51.33,7.81l.3.3Z"/><path class="a" d="M53,9.72l.27.38Z"/><path class="a" d="M42.8,4.05l.44,0Z"/><path class="a" d="M53.8,10.88l.18.3Z"/><path class="a" d="M54.56,12.34c0,.1.08.2.12.3C54.64,12.55,54.61,12.44,54.56,12.34Z"/><path class="a" d="M52.21,8.71l.31.36Z"/><path class="a" d="M55,13.59c.05.15.09.31.14.46C55.13,13.9,55.09,13.74,55,13.59Z"/><path class="a" d="M55.4,14.93c0,.17.07.33.11.5C55.48,15.26,55.44,15.09,55.4,14.93Z"/><path class="b" d="M52.06,28.71H39.48l-2.25-4.29-5.83,16L25.27,19.87l-2.56,8.55H7.54c.62,1,1.3,1.92,2,2.86q.45.58.92,1.16c.74.89,1.51,1.77,2.3,2.63l1.14,1.2,1.19,1.2c.6.59,1.21,1.17,1.82,1.73A107.77,107.77,0,0,0,29.89,49.33S44.9,39.64,52.06,28.71Z"/><path class="b" d="M7.46,8.72l-.28.34q-.27.33-.51.67l-.25.36c-.18.27-.35.54-.51.82l-.16.27q-.31.57-.57,1.17c0,.09-.07.19-.11.28-.13.32-.25.64-.35,1,0,.15-.09.3-.13.44s-.16.59-.23.89-.07.32-.1.49c-.06.32-.1.64-.14,1,0,.15,0,.3-.05.45,0,.48-.07,1-.07,1.48a17.33,17.33,0,0,0,2.35,8.09H21.22l4.05-13.54,6.32,21.18L36.9,19.49l3.79,7.22H53.28a17.61,17.61,0,0,0,2.51-8.38h0c0-.5,0-1-.07-1.46,0-.16,0-.31-.06-.46,0-.32-.09-.65-.15-1s-.07-.33-.11-.5-.14-.59-.23-.88-.09-.31-.14-.46c-.11-.32-.23-.64-.35-.95,0-.1-.08-.2-.12-.3q-.26-.6-.58-1.16l-.18-.3c-.16-.27-.32-.54-.5-.79L53,9.72q-.24-.33-.5-.64l-.31-.36c-.19-.21-.38-.41-.58-.61l-.3-.3c-.3-.28-.61-.55-.93-.8l-.13-.09q-.43-.33-.88-.62L49,6.07l-.7-.4-.42-.21-.72-.33L46.77,5c-.29-.11-.58-.21-.88-.3l-.28-.09q-.58-.17-1.17-.29l-.34-.06c-.29-.05-.58-.1-.87-.13l-.44,0L42,4h-.86l-.73.05-.26,0q-.49.06-1,.15L39,4.3l-.76.19-.32.1-.66.22-.31.12q-.42.17-.84.37l-.09,0c-.3.15-.6.32-.9.49L34.81,6l-.62.42-.29.21c-.21.16-.42.33-.63.51l-.21.18q-.41.36-.79.77l-.18.2c-.2.22-.39.44-.58.67l-.24.31q-.26.33-.5.69l-.21.31c-.22.34-.44.69-.65,1.06h0c-.22-.37-.46-.72-.7-1.06L29,10q-.26-.36-.54-.69L28.18,9q-.31-.36-.62-.68l-.18-.19q-.41-.41-.83-.77l-.2-.17c-.22-.18-.44-.36-.67-.53l-.29-.2L24.74,6l-.26-.16c-.3-.18-.61-.35-.92-.5l0,0c-.3-.14-.6-.27-.9-.39l-.29-.11-.69-.23-.31-.09-.79-.19-.19,0q-.49-.1-1-.15l-.25,0L18.37,4h-.85l-.8,0-.43,0c-.29,0-.59.08-.88.13l-.32.05q-.59.12-1.17.29l-.24.08c-.3.1-.61.2-.9.32l-.38.16-.74.34-.39.2c-.24.13-.48.27-.72.42l-.33.21c-.32.21-.63.44-.93.67L9.24,7c-.32.25-.63.53-.92.81l-.26.26C7.86,8.29,7.66,8.5,7.46,8.72Z"/><path class="c" d="M41.74,0h0A16.8,16.8,0,0,0,29.81,4.87,17.33,17.33,0,0,0,17.78,0,17.87,17.87,0,0,0,0,18.33c0,16,24.89,32.54,27.73,34.37a4,4,0,0,0,4.34,0c2.84-1.83,27.73-18.35,27.73-34.37A18,18,0,0,0,41.74,0ZM8.32,7.82c.3-.28.6-.56.92-.81L9.3,7c.3-.24.61-.46.93-.67l.33-.21c.24-.15.48-.29.72-.42l.39-.2.74-.34L12.79,5c.3-.12.6-.22.9-.32l.24-.08q.58-.17,1.17-.29l.32-.05c.29-.05.58-.1.88-.13l.43,0,.8,0h.85l.74.06.25,0c.33,0,.65.09,1,.15l.19,0,.79.19.31.09.69.23.29.11c.3.12.6.25.9.39l0,0c.31.15.62.32.92.5l.26.16.66.43.29.2q.34.25.67.53l.2.17q.42.37.83.77l.18.19c.21.22.42.45.62.68l.25.3q.27.33.54.69l.22.31c.24.34.47.69.7,1.06h0c.21-.37.42-.72.65-1.06l.21-.31q.24-.36.5-.69L31.5,9c.19-.23.39-.46.58-.67l.18-.2q.39-.41.79-.77l.21-.18c.21-.18.42-.35.63-.51l.29-.21L34.81,6l.27-.17c.29-.18.59-.34.9-.49l.09,0q.42-.2.84-.37l.31-.12.66-.22.32-.1L39,4.3l.21,0q.48-.1,1-.15l.26,0L41.14,4H42l.8,0,.44,0c.29,0,.58.08.87.13l.34.06q.59.12,1.17.29l.28.09c.3.09.59.19.88.3l.41.17.72.33.42.21.7.4.37.22q.45.29.88.62l.13.09c.32.25.63.52.93.8l.3.3c.2.2.39.4.58.61l.31.36q.26.31.5.64l.27.38c.18.26.34.52.5.79l.18.3q.31.56.58,1.16c0,.1.08.2.12.3.13.31.25.62.35.95.05.15.09.31.14.46s.16.58.23.88.07.33.11.5.11.64.15,1c0,.15,0,.3.06.46,0,.48.07,1,.07,1.46h0a17.61,17.61,0,0,1-2.51,8.38H40.69L36.9,19.49,31.59,34.06,25.27,12.88,21.22,26.42H6.35A17.33,17.33,0,0,1,4,18.33c0-.5,0-1,.07-1.48,0-.15,0-.3.05-.45,0-.33.09-.66.14-1,0-.16.06-.33.1-.49s.14-.6.23-.89.08-.3.13-.44c.11-.33.23-.66.35-1l.11-.28q.26-.6.57-1.17l.16-.27c.16-.28.33-.56.51-.82l.25-.36q.25-.34.51-.67l.28-.34c.19-.22.39-.43.6-.64ZM29.89,49.33A107.76,107.76,0,0,1,16.95,39.19c-.61-.56-1.22-1.14-1.82-1.73l-1.19-1.2-1.14-1.2c-.8-.86-1.57-1.73-2.3-2.63q-.47-.58-.92-1.16c-.73-.94-1.41-1.9-2-2.86H22.71l2.56-8.55,6.13,20.55,5.83-16,2.25,4.29H52.06C44.9,39.64,29.89,49.33,29.89,49.33Z"/></svg>