<svg xmlns="http://www.w3.org/2000/svg" viewBox="0 0 45.37 50.81"><defs><style>.a{fill:#4d6892;}</style></defs><title>provider-icon</title><path class="a" d="M14131,10395.2a5.61,5.61,0,1,0-6.72,5.5v5a10.12,10.12,0,0,1-20.24,0v-3.19a7.78,7.78,0,0,0,5.67-4l4.65-8.68a2.41,2.41,0,0,0-.08-2.41l5-9.31a6.59,6.59,0,0,0-5.81-9.7H14113a2.17,2.17,0,0,0-1.81-1h-3a2.18,2.18,0,1,0,0,4.35h3a2.17,2.17,0,0,0,1.81-1h0.42a4.17,4.17,0,0,1,3.68,6.13l-5,9.31a2.41,2.41,0,0,0-2.05,1.27l-4.65,8.68a3,3,0,0,1-5.21,0l-4.65-8.68a2.41,2.41,0,0,0-2.05-1.27l-5-9.31a4.17,4.17,0,0,1,3.67-6.13h0.42a2.17,2.17,0,0,0,1.81,1h3a2.18,2.18,0,1,0,0-4.35h-3a2.17,2.17,0,0,0-1.81,1h-0.42a6.59,6.59,0,0,0-5.81,9.7l5,9.31a2.41,2.41,0,0,0-.08,2.41l4.65,8.68a7.77,7.77,0,0,0,5.67,4v3.19a12.54,12.54,0,0,0,25.08,0v-5A5.61,5.61,0,0,0,14131,10395.2Zm-5.61,3.19a3.19,3.19,0,1,1,3.19-3.19A3.19,3.19,0,0,1,14125.38,10398.39Z" transform="translate(-14085.62 -10367.38)"/></svg>