<svg xmlns="http://www.w3.org/2000/svg" viewBox="0 0 61.87 48.96"><defs><style>.a{fill:#4d6892;}</style></defs><title>cost-icon</title><polygon class="a" points="12.85 45.4 3.92 31.9 1.87 28.81 0 29.52 1.43 31.68 12.85 48.96 61.87 30.27 59.99 27.44 12.85 45.4"/><polygon class="a" points="12.85 40.09 7.52 32.03 1.87 23.49 0 24.2 5.14 31.97 12.85 43.63 61.87 24.95 59.99 22.11 12.85 40.09"/><path class="a" d="M13498.48,10401.06l43.14-16.44,5.88-2.24-12.85-19.43-49,18.68,8.82,13.34Zm14-25.25c4.5-1.72,10-.33,12.24,3.08a5.65,5.65,0,0,1-1.19,7.58,9.13,9.13,0,0,1-2.87,1.71,11.21,11.21,0,0,1-3.14.69c-3.67.29-7.36-1.12-9.11-3.78C13506.14,10381.69,13508,10377.53,13512.47,10375.81Z" transform="translate(-13485.62 -10362.94)"/><path class="a" d="M13516.34,10382.81c1.37-.15,2.09-0.07,2.39.39s-0.13,1-1,1.34a7.92,7.92,0,0,1-3,.49l0.47,1.59a9,9,0,0,0,3-.54l0.78,1.15,1.55-.6-0.84-1.23c1.67-1,2-2.23,1.32-3.3s-1.92-1.46-4.16-1.22c-1.59.15-2.33,0.1-2.59-.28s-0.13-.81.89-1.21a7.06,7.06,0,0,1,2.56-.47l-0.44-1.54a8,8,0,0,0-2.58.5l-0.71-1.05-1.55.6,0.77,1.14c-1.53.9-1.95,2.1-1.23,3.17S13514.36,10383,13516.34,10382.81Z" transform="translate(-13485.62 -10362.94)"/></svg>