<svg xmlns="http://www.w3.org/2000/svg" viewBox="0 0 40.16 45.63"><defs><style>.a{fill:#5692f0;}</style></defs><title>edit-icon</title><path class="a" d="M13984.58,10372.34a5,5,0,0,0-2.58-2.83l-9.41-4.43a5,5,0,0,0-6.65,2.4l-2.41,5.13h0l-11.18,23.77a2,2,0,0,0-.07,1.53h0l3.7,10.33h-10.25a1,1,0,0,0,0,2h12.14a1,1,0,0,0,.39-0.08,2,2,0,0,0,.51-0.1l10.82-3.92,0.09,0h0a2,2,0,0,0,1.13-1l8.41-17.89,1.54-3.28,1.22-2.6h0l2.41-5.13A5,5,0,0,0,13984.58,10372.34Zm-17,30.27-2.54.9-4.93-2.32,8.58-18.25-1.81-.85-8.58,18.25-1-.48-0.93-2.54,8.06-17.13,0.2-.42,1.72-3.65,11.22,5.28Zm13.24-28.15-1.56,3.32-11.22-5.28,1.56-3.32a1,1,0,0,1,1.33-.48l9.41,4.43A1,1,0,0,1,13980.78,10374.46Z" transform="translate(-13944.72 -10364.61)"/></svg>