<svg xmlns="http://www.w3.org/2000/svg" viewBox="0 0 55.45 49.42"><defs><style>.a{fill:#4d6892;}</style></defs><title>icon-history</title><polygon class="a" points="33.55 35.26 23.7 28.2 23.7 11.88 28.54 11.88 28.54 25.72 36.37 31.33 33.55 35.26"/><polygon class="a" points="38.48 26.84 46.97 18.35 55.45 26.84 38.48 26.84"/><path class="a" d="M14184.44,10483.32a24.71,24.71,0,0,1,0-49.42v4.84a19.88,19.88,0,1,0,19.88,19.88h4.84A24.74,24.74,0,0,1,14184.44,10483.32Z" transform="translate(-14159.73 -10433.9)"/><path class="a" d="M14193.86,10441.1l2.3-4.26a25.08,25.08,0,0,1,3.42,2.22l-3,3.83A20.26,20.26,0,0,0,14193.86,10441.1Z" transform="translate(-14159.73 -10433.9)"/><path class="a" d="M14199,10445.11l3.55-3.29a24.89,24.89,0,0,1,2.51,3.21l-4,2.66A20.21,20.21,0,0,0,14199,10445.11Z" transform="translate(-14159.73 -10433.9)"/></svg>