<svg xmlns="http://www.w3.org/2000/svg" viewBox="0 0 56 48.82"><defs><style>.a{fill:#5692f0;}.b{fill:#fff;}</style></defs><title>id-icon</title><path class="a" d="M13817.2,10442.83v8.4h-29.32v-8.4h-13.34v43h56v-43h-13.34Zm-3,0H13807v-1.34a4.45,4.45,0,0,0-8.89,0v1.34h-7.21v5.42h23.32v-5.42Zm-11.66-.2a1.45,1.45,0,1,1,1.45-1.45A1.45,1.45,0,0,1,13802.54,10442.6Z" transform="translate(-13774.54 -10437.01)"/><rect class="b" x="31.41" y="37.22" width="9.88" height="2"/><rect class="b" x="31.41" y="31.35" width="13.4" height="2"/><rect class="b" x="31.41" y="25.47" width="16.41" height="2"/><rect class="b" x="31.41" y="19.6" width="18.71" height="2"/><path class="b" d="M13781,10456.31v20.22h2.17c0.53-.32,1.48-0.91,2.25-1.27a16.1,16.1,0,0,0,3.17-2.14c-0.08-1-.45-4.92-0.45-4.92a0.52,0.52,0,0,1-.28.2c-0.16,0-.43,0-0.72-0.65s-0.65-2.34-.29-2.52a0.7,0.7,0,0,1,.62.23,9.76,9.76,0,0,1,.33-4.19c0.69-1.9,3.51-2.23,4-2.23s3.31,0.33,4,2.23a9.77,9.77,0,0,1,.33,4.19,0.7,0.7,0,0,1,.62-0.23c0.36,0.18,0,1.87-.29,2.52s-0.56.69-.72,0.65a0.52,0.52,0,0,1-.28-0.2s-0.26,3.11-.45,4.92a16.1,16.1,0,0,0,3.17,2.14c0.77,0.36,1.72.95,2.25,1.27h2.17v-20.22H13781Z" transform="translate(-13774.54 -10437.01)"/></svg>