<svg xmlns="http://www.w3.org/2000/svg" viewBox="0 0 27.45 49.38"><defs><style>.a{fill:#5692f0;}</style></defs><title>phone-icon</title><path class="a" d="M13890.3,10477.25c-0.67-.55-1.41-1.1-2.2-1.63s-1.55-1-2.34-1.52l-4.28-2.77a1.91,1.91,0,0,0-2.44.07l-0.14.11c-0.12.1-.24,0.19-0.35,0.3l-0.42.43c-0.21.23-.43,0.45-0.66,0.66l0,0c-0.28-.85-0.53-1.7-0.74-2.52-0.26-1-.5-2-0.74-3l-0.64-2.64c-0.17-.68-0.33-1.35-0.49-2-0.19-.84-0.38-1.68-0.57-2.51l-0.41-1.81-0.32-1.37c-0.14-.59-0.28-1.18-0.41-1.77l-0.14-.63c-0.24-1.09-.48-2.18-0.69-3.28,0-.16-0.05-0.29-0.07-0.39h0.33l0.95,0.22c0.67,0.16,1.34.32,2,.46a1.8,1.8,0,0,0,2.35-1.18l0.6-1.69c0.44-1.26.89-2.52,1.31-3.78,0.33-1,.62-2,0.92-3,0.19-.63.38-1.26,0.58-1.9a1.74,1.74,0,0,0-1.08-2.35c-0.58-.21-1.16-0.37-1.73-0.53l-0.46-.13a10.73,10.73,0,0,0-4.35-.25,15.44,15.44,0,0,0-3.21.76,8,8,0,0,0-4.15,2.6l-0.21.29a6.79,6.79,0,0,0-1.43,2.88l-0.09.5c-0.16.92-.4,2.32-0.61,4.09s-0.46,3.38-.45,3.83h0v1.34c0,0.58,0,1.17,0,1.76,0,1.19,0,2.45.11,3.75a36.91,36.91,0,0,0,1.35,7.49,36.06,36.06,0,0,0,2.27,6.38,65.08,65.08,0,0,0,3,5.78,53.86,53.86,0,0,0,3.69,5.16,6.7,6.7,0,0,0,3.53,2.42,7.36,7.36,0,0,0,2,.24c0.42,0,.84,0,1.24-0.06a12.14,12.14,0,0,0,5.92-1.83,11.74,11.74,0,0,0,4.09-4.67A1.79,1.79,0,0,0,13890.3,10477.25Z" transform="translate(-13863.52 -10436.74)"/></svg>