<svg xmlns="http://www.w3.org/2000/svg" viewBox="0 0 38.34 43.65"><defs><style>.a{fill:#4d6892;}</style></defs><title>icon-member</title><path class="a" d="M13452,10471.4c-0.92-2.46-3.54-2.77-4-3s-2.5-1.58-4-2.31a25.2,25.2,0,0,1-5-3.34c0.29-2.84.7-7.71,0.7-7.71a0.81,0.81,0,0,0,.43.31c0.26,0.05.67,0,1.13-1s1-3.67.46-3.95a1.09,1.09,0,0,0-1,.36,15.29,15.29,0,0,0-.51-6.56c-1.08-3-5.49-3.49-6.25-3.49s-5.18.51-6.25,3.49a15.28,15.28,0,0,0-.51,6.56,1.09,1.09,0,0,0-1-.36c-0.56.28,0,2.92,0.46,3.95s0.87,1.08,1.13,1a0.81,0.81,0,0,0,.43-0.31s0.58,6.18.7,7.71a25.21,25.21,0,0,1-5,3.34c-1.54.73-3.57,2-4,2.31s-3.08.58-4,3a25.56,25.56,0,0,0-1.16,5.65c4.91,4.9,12,7.26,19.47,7.26s14-2.29,18.87-7.19A26.27,26.27,0,0,0,13452,10471.4Z" transform="translate(-13414.78 -10440.66)"/></svg>