<svg xmlns="http://www.w3.org/2000/svg" viewBox="0 0 115.61 102.41"><defs><style>.a{fill:#ff7c07;}.b{fill:#d90000;}.c{fill:#cfd7e4;}.d{fill:#fff338;}.e{fill:#b3ff2e;}</style></defs><title>meter-70</title><path d="M14214.89,11119.62h-3v-0.42l4.18-8.05h-3.75l-0.3,1.11h-1.67v-3.13h8.1v1.9Z" transform="translate(-14168.84 -11056.39)"/><path d="M14223.26,11119.81c-2.79,0-3.9-1.09-3.95-3.88v-3c0-2.87,1.11-4,3.95-4h0.71c2.76,0,3.84,1.13,3.84,4v3c0,2.79-1.12,3.9-3.83,3.9h-0.72Zm0.45-2.13a1.4,1.4,0,0,0,1.59-1.65v-3.36a1.41,1.41,0,0,0-1.59-1.7h-0.3a1.41,1.41,0,0,0-1.59,1.7v3.36a1.39,1.39,0,0,0,1.59,1.65h0.3Z" transform="translate(-14168.84 -11056.39)"/><path d="M14232.57,11108.92c1.77,0,2.32.75,2.32,2.58v1.28c0,1.81-.58,2.54-2.32,2.54h-1c-1.79,0-2.37-.72-2.38-2.54v-1.28c0-1.84.57-2.58,2.38-2.58h1Zm-0.92,1.5c-0.69,0-.84.31-0.84,1.06v1.29c0,0.73.15,1,.84,1h0.73c0.66,0,.83-0.3.84-1v-1.29c0-.75-0.17-1.06-0.84-1.06h-0.73Zm4.47,4-3.43,5.44h-0.93l3.86-5.44,3.48-5.55h0.93Zm4.25-1c1.77,0,2.32.75,2.32,2.58v1.28c0,1.81-.58,2.53-2.32,2.53h-1c-1.79,0-2.37-.72-2.38-2.53V11116c0-1.85.57-2.58,2.38-2.58h1Zm-0.92,1.5c-0.69,0-.84.31-0.84,1.06v1.29c0,0.73.15,1,.84,1h0.73c0.66,0,.83-0.3.84-1V11116c0-.75-0.16-1.06-0.84-1.06h-0.73Z" transform="translate(-14168.84 -11056.39)"/><path class="a" d="M14208.34,11100.51a1.66,1.66,0,0,1-.88-0.25l-27.55-17.29a1.67,1.67,0,0,1-.47-2.38,58,58,0,0,1,13.87-13.82,1.67,1.67,0,0,1,2.41.54l16.14,28.55a1.67,1.67,0,0,1-.31,2,22.29,22.29,0,0,0-1.91,2A1.66,1.66,0,0,1,14208.34,11100.51Z" transform="translate(-14168.84 -11056.39)"/><path class="b" d="M14190.52,11158.8a1.67,1.67,0,0,1-1.07-.39,58.13,58.13,0,0,1-11.67-13.33,1.67,1.67,0,0,1,.67-2.39l29.52-14.46a1.67,1.67,0,0,1,2,.4,22.42,22.42,0,0,0,2.45,2.41,1.67,1.67,0,0,1,.2,2.35l-20.83,24.82a1.67,1.67,0,0,1-1.13.59h-0.14Z" transform="translate(-14168.84 -11056.39)"/><path class="c" d="M14262.78,11158.8h-0.14a1.67,1.67,0,0,1-1.13-.59l-20.83-24.82a1.67,1.67,0,0,1,.2-2.35,22.5,22.5,0,0,0,2.43-2.38,1.67,1.67,0,0,1,2-.4l29.53,14.46a1.67,1.67,0,0,1,.67,2.39,58.12,58.12,0,0,1-11.65,13.29A1.67,1.67,0,0,1,14262.78,11158.8Z" transform="translate(-14168.84 -11056.39)"/><path class="c" d="M14278.43,11137.63a1.66,1.66,0,0,1-.73-0.17l-29.21-14.3a1.67,1.67,0,0,1-.85-2,22,22,0,0,0,.68-2.49,1.67,1.67,0,0,1,1.52-1.32l32.83-2.1h0.11a1.67,1.67,0,0,1,1.66,1.75,57.47,57.47,0,0,1-4.48,19.66A1.67,1.67,0,0,1,14278.43,11137.63Z" transform="translate(-14168.84 -11056.39)"/><path class="a" d="M14203.25,11111.29h-0.11l-32.44-2.08a1.67,1.67,0,0,1-1.55-1.85,57.41,57.41,0,0,1,5.38-18.49,1.67,1.67,0,0,1,2.38-.68l27.85,17.48a1.67,1.67,0,0,1,.71,1.9,22.22,22.22,0,0,0-.58,2.38A1.67,1.67,0,0,1,14203.25,11111.29Z" transform="translate(-14168.84 -11056.39)"/><path class="d" d="M14234.89,11093.4a1.66,1.66,0,0,1-.58-0.1,22.08,22.08,0,0,0-3.39-.95,1.67,1.67,0,0,1-1.35-1.64l0-32.65a1.67,1.67,0,0,1,1.67-1.66h0.14a57.4,57.4,0,0,1,20.24,5.47,1.67,1.67,0,0,1,.73,2.32l-16,28.36A1.67,1.67,0,0,1,14234.89,11093.4Z" transform="translate(-14168.84 -11056.39)"/><path class="e" d="M14244.93,11100.48a1.66,1.66,0,0,1-1.28-.6,22.37,22.37,0,0,0-1.94-2,1.67,1.67,0,0,1-.32-2l16.13-28.54a1.67,1.67,0,0,1,2.41-.54,58,58,0,0,1,13.9,13.83,1.67,1.67,0,0,1-.47,2.38l-27.55,17.29A1.66,1.66,0,0,1,14244.93,11100.48Z" transform="translate(-14168.84 -11056.39)"/><path class="b" d="M14174.85,11137.59a1.67,1.67,0,0,1-1.53-1,57.47,57.47,0,0,1-4.47-19.62,1.67,1.67,0,0,1,1.66-1.75h0.11l32.83,2.1a1.67,1.67,0,0,1,1.52,1.32,22,22,0,0,0,.67,2.46,1.67,1.67,0,0,1-.85,2l-29.21,14.31A1.66,1.66,0,0,1,14174.85,11137.59Z" transform="translate(-14168.84 -11056.39)"/><path class="c" d="M14250,11111.29a1.67,1.67,0,0,1-1.64-1.36,22.25,22.25,0,0,0-.6-2.42,1.67,1.67,0,0,1,.71-1.9l27.84-17.47a1.67,1.67,0,0,1,2.38.68,57.42,57.42,0,0,1,5.4,18.53,1.67,1.67,0,0,1-1.55,1.85l-32.44,2.08H14250Z" transform="translate(-14168.84 -11056.39)"/><path class="d" d="M14218.33,11093.42a1.67,1.67,0,0,1-1.45-.85l-16-28.36a1.67,1.67,0,0,1,.73-2.32,57.4,57.4,0,0,1,20.22-5.49h0.14a1.67,1.67,0,0,1,1.67,1.67l0,32.67a1.67,1.67,0,0,1-1.34,1.63,22.05,22.05,0,0,0-3.33,1A1.66,1.66,0,0,1,14218.33,11093.42Z" transform="translate(-14168.84 -11056.39)"/></svg>