<svg id="Layer_1" data-name="Layer 1" xmlns="http://www.w3.org/2000/svg" viewBox="0 0 43.01 56"><defs><style>.cls-1{fill:#4d6892;}</style></defs><title>policy-icon</title><path class="cls-1" d="M13809.65,11086.15h-31.91v56h43v-44.9Zm-9.41,7.76,6.25,2.45a1,1,0,0,1,.75,1v4.46h-7v-7.88Zm0,9.88h7v0.21a8,8,0,0,1-7,7.93v-8.14Zm-9-6.46a1,1,0,0,1,.75-1l6.25-2.45v7.88h-7v-4.46Zm0,6.46h7v8.14a8,8,0,0,1-7-7.93v-0.21Zm16.73,26h-17.46v-2H13808v2Zm0-5.38h-17.46v-2H13808v2Zm0-5.38h-17.46v-2H13808v2Z" transform="translate(-13777.74 -11086.15)"/></svg>