<svg xmlns="http://www.w3.org/2000/svg" viewBox="0 0 59.17 60.69"><defs><style>.a{fill:#5692f0;}</style></defs><title>search-specialty</title><path class="a" d="M13903.33,10763l-16.14-17-0.63-.66a23,23,0,1,0-7.66,7.28l16.76,17.64a0.75,0.75,0,0,0,1.05,0l3.29-3.13,3.29-3.13A0.75,0.75,0,0,0,13903.33,10763ZM13878,10744a15.54,15.54,0,1,1,.56-22A15.54,15.54,0,0,1,13878,10744Zm-0.82-13.71,1-2.86-2.86-1-0.22-3-3,.21-1.43-2.69-2.69,1.43-2.4-1.87-1.88,2.4-3-.73-0.74,3-3,.53,0.53,3-2.52,1.71,1.7,2.52-1.61,2.58,2.58,1.61-0.42,3,3,0.43,0.84,2.93,2.93-.84,2,2.33,2.33-2,2.74,1.33,1.34-2.74,3,0.1,0.11-3,2.82-1.14-1.14-2.82,2.11-2.19Zm-10,11.26a8.9,8.9,0,1,1,8.9-8.9A8.9,8.9,0,0,1,13867.24,10741.58Zm0-16.35a7.46,7.46,0,1,0,7.46,7.46A7.47,7.47,0,0,0,13867.24,10725.23Zm4.13,5.48-5,5a0.72,0.72,0,0,1-1,0l-2.27-2.27a0.72,0.72,0,1,1,1-1l1.76,1.76,4.46-4.46A0.72,0.72,0,0,1,13871.37,10730.71Z" transform="translate(-13844.37 -10709.8)"/></svg>