<svg xmlns="http://www.w3.org/2000/svg" viewBox="0 0 60.75 53.81"><defs><style>.a{fill:#cfd7e4;}</style></defs><title>meter-zero-icon</title><path d="M13417.31,10306.33c-1.47,0-2-.58-2.07-2v-1.58c0-1.51.58-2.09,2.07-2.09h0.37c1.45,0,2,.59,2,2.09v1.58c0,1.47-.59,2-2,2h-0.38Zm0.24-1.12a0.73,0.73,0,0,0,.84-0.87v-1.77a0.74,0.74,0,0,0-.84-0.89h-0.16a0.74,0.74,0,0,0-.84.89v1.77a0.73,0.73,0,0,0,.84.87h0.16Z" transform="translate(-13387.1 -10273.01)"/><path class="a" d="M13407.85,10296.19a0.87,0.87,0,0,1-.46-0.13l-14.47-9.09a0.88,0.88,0,0,1-.25-1.25,30.48,30.48,0,0,1,7.29-7.26,0.88,0.88,0,0,1,.5-0.16l0.19,0a0.88,0.88,0,0,1,.57.42l8.48,15a0.88,0.88,0,0,1-.16,1.07,11.71,11.71,0,0,0-1,1.06A0.87,0.87,0,0,1,13407.85,10296.19Z" transform="translate(-13387.1 -10273.01)"/><path class="a" d="M13398.49,10326.82a0.88,0.88,0,0,1-.56-0.21,30.54,30.54,0,0,1-6.13-7,0.88,0.88,0,0,1,.35-1.26l15.51-7.6a0.88,0.88,0,0,1,1,.21,11.78,11.78,0,0,0,1.29,1.26,0.88,0.88,0,0,1,.11,1.23l-10.94,13a0.88,0.88,0,0,1-.59.31h-0.08Z" transform="translate(-13387.1 -10273.01)"/><path class="a" d="M13436.45,10326.82h-0.08a0.88,0.88,0,0,1-.59-0.31l-10.94-13a0.88,0.88,0,0,1,.11-1.23,11.82,11.82,0,0,0,1.28-1.25,0.88,0.88,0,0,1,1-.21l15.52,7.6a0.88,0.88,0,0,1,.35,1.26,30.54,30.54,0,0,1-6.12,7A0.88,0.88,0,0,1,13436.45,10326.82Z" transform="translate(-13387.1 -10273.01)"/><path class="a" d="M13444.68,10315.69a0.87,0.87,0,0,1-.39-0.09l-15.34-7.52a0.88,0.88,0,0,1-.44-1.06,11.56,11.56,0,0,0,.36-1.31,0.88,0.88,0,0,1,.8-0.69l17.25-1.11h0.06a0.88,0.88,0,0,1,.87.92,30.2,30.2,0,0,1-2.36,10.33A0.88,0.88,0,0,1,13444.68,10315.69Z" transform="translate(-13387.1 -10273.01)"/><path class="a" d="M13405.18,10301.86h-0.06l-17-1.09a0.88,0.88,0,0,1-.81-1,30.17,30.17,0,0,1,2.83-9.72,0.88,0.88,0,0,1,1.25-.36l14.63,9.18a0.88,0.88,0,0,1,.37,1,11.68,11.68,0,0,0-.31,1.25A0.88,0.88,0,0,1,13405.18,10301.86Z" transform="translate(-13387.1 -10273.01)"/><path class="a" d="M13421.8,10292.45a0.87,0.87,0,0,1-.3-0.05,11.6,11.6,0,0,0-1.78-.5,0.88,0.88,0,0,1-.71-0.86v-17.16a0.88,0.88,0,0,1,.88-0.87h0.07a30.16,30.16,0,0,1,10.63,2.87,0.88,0.88,0,0,1,.38,1.22l-8.42,14.9A0.88,0.88,0,0,1,13421.8,10292.45Z" transform="translate(-13387.1 -10273.01)"/><path class="a" d="M13427.07,10296.18a0.87,0.87,0,0,1-.67-0.31,11.75,11.75,0,0,0-1-1.07,0.88,0.88,0,0,1-.17-1.07l8.48-15a0.87,0.87,0,0,1,.57-0.42l0.19,0a0.88,0.88,0,0,1,.5.16,30.48,30.48,0,0,1,7.3,7.27,0.88,0.88,0,0,1-.25,1.25l-14.48,9.09A0.87,0.87,0,0,1,13427.07,10296.18Z" transform="translate(-13387.1 -10273.01)"/><path class="a" d="M13390.25,10315.68a0.88,0.88,0,0,1-.81-0.53,30.19,30.19,0,0,1-2.35-10.31,0.88,0.88,0,0,1,.87-0.92h0.06l17.25,1.11a0.88,0.88,0,0,1,.8.69,11.54,11.54,0,0,0,.35,1.29,0.88,0.88,0,0,1-.45,1.06l-15.35,7.52A0.87,0.87,0,0,1,13390.25,10315.68Z" transform="translate(-13387.1 -10273.01)"/><path class="a" d="M13429.76,10301.85a0.88,0.88,0,0,1-.86-0.71,11.69,11.69,0,0,0-.31-1.27,0.88,0.88,0,0,1,.37-1l14.63-9.18a0.88,0.88,0,0,1,1.25.36,30.17,30.17,0,0,1,2.84,9.74,0.88,0.88,0,0,1-.81,1l-17,1.09h-0.06Z" transform="translate(-13387.1 -10273.01)"/><path class="a" d="M13413.1,10292.47a0.88,0.88,0,0,1-.76-0.44l-8.42-14.9a0.88,0.88,0,0,1,.38-1.22,30.16,30.16,0,0,1,10.63-2.89h0.07a0.88,0.88,0,0,1,.88.88v17.17a0.88,0.88,0,0,1-.7.86,11.59,11.59,0,0,0-1.75.5A0.87,0.87,0,0,1,13413.1,10292.47Z" transform="translate(-13387.1 -10273.01)"/></svg>