<svg xmlns="http://www.w3.org/2000/svg" viewBox="0 0 60.75 53.81"><defs><style>.a{fill:#cfd7e4;}.b{fill:#ef7ead;}</style></defs><title>meter-two-icon</title><path d="M13577.86,10303.87h-4V10303c0-1.14.22-1.38,0.83-1.73a10.84,10.84,0,0,1,1.27-.59,0.75,0.75,0,0,0,.65-0.56v-0.22c0-.43-0.13-0.54-0.61-0.54a2.61,2.61,0,0,0-.9.13l-0.09.47h-1v-1.32a6.82,6.82,0,0,1,2.1-.32c1.24,0,1.75.47,1.75,1.65v0.22c0,0.87-.36,1-1.3,1.42-0.41.17-1,.35-1.2,0.48a0.79,0.79,0,0,0-.3.87h1.8l0.09-.66h0.88v1.63Z" transform="translate(-13545.5 -10270.65)"/><path class="a" d="M13566.26,10293.84a0.87,0.87,0,0,1-.46-0.13l-14.47-9.09a0.88,0.88,0,0,1-.25-1.25,30.48,30.48,0,0,1,7.29-7.26,0.88,0.88,0,0,1,.5-0.16l0.19,0a0.88,0.88,0,0,1,.57.42l8.48,15a0.88,0.88,0,0,1-.16,1.07,11.71,11.71,0,0,0-1,1.06A0.87,0.87,0,0,1,13566.26,10293.84Z" transform="translate(-13545.5 -10270.65)"/><path class="b" d="M13556.89,10324.46a0.88,0.88,0,0,1-.56-0.21,30.54,30.54,0,0,1-6.13-7,0.88,0.88,0,0,1,.35-1.26l15.51-7.6a0.88,0.88,0,0,1,1,.21,11.78,11.78,0,0,0,1.29,1.26,0.88,0.88,0,0,1,.11,1.23l-10.94,13a0.88,0.88,0,0,1-.59.31h-0.08Z" transform="translate(-13545.5 -10270.65)"/><path class="a" d="M13594.86,10324.46h-0.08a0.88,0.88,0,0,1-.59-0.31l-10.94-13a0.88,0.88,0,0,1,.11-1.23,11.82,11.82,0,0,0,1.28-1.25,0.88,0.88,0,0,1,1-.21l15.52,7.6a0.88,0.88,0,0,1,.35,1.26,30.54,30.54,0,0,1-6.12,7A0.88,0.88,0,0,1,13594.86,10324.46Z" transform="translate(-13545.5 -10270.65)"/><path class="a" d="M13603.09,10313.34a0.87,0.87,0,0,1-.39-0.09l-15.34-7.52a0.88,0.88,0,0,1-.44-1.06,11.56,11.56,0,0,0,.36-1.31,0.88,0.88,0,0,1,.8-0.69l17.25-1.11h0.06a0.88,0.88,0,0,1,.87.92,30.2,30.2,0,0,1-2.36,10.33A0.88,0.88,0,0,1,13603.09,10313.34Z" transform="translate(-13545.5 -10270.65)"/><path class="a" d="M13563.58,10299.5h-0.06l-17-1.09a0.88,0.88,0,0,1-.81-1,30.17,30.17,0,0,1,2.83-9.72,0.88,0.88,0,0,1,1.25-.36l14.63,9.18a0.88,0.88,0,0,1,.37,1,11.68,11.68,0,0,0-.31,1.25A0.88,0.88,0,0,1,13563.58,10299.5Z" transform="translate(-13545.5 -10270.65)"/><path class="a" d="M13580.21,10290.1a0.87,0.87,0,0,1-.3-0.05,11.6,11.6,0,0,0-1.78-.5,0.88,0.88,0,0,1-.71-0.86v-17.16a0.88,0.88,0,0,1,.88-0.87h0.07a30.16,30.16,0,0,1,10.63,2.87,0.88,0.88,0,0,1,.38,1.22l-8.42,14.9A0.88,0.88,0,0,1,13580.21,10290.1Z" transform="translate(-13545.5 -10270.65)"/><path class="a" d="M13585.48,10293.82a0.87,0.87,0,0,1-.67-0.31,11.76,11.76,0,0,0-1-1.07,0.88,0.88,0,0,1-.17-1.07l8.48-15a0.87,0.87,0,0,1,.57-0.42l0.19,0a0.88,0.88,0,0,1,.5.16,30.48,30.48,0,0,1,7.3,7.27,0.88,0.88,0,0,1-.25,1.25l-14.48,9.09A0.87,0.87,0,0,1,13585.48,10293.82Z" transform="translate(-13545.5 -10270.65)"/><path class="b" d="M13548.66,10313.32a0.88,0.88,0,0,1-.81-0.53,30.19,30.19,0,0,1-2.35-10.31,0.88,0.88,0,0,1,.87-0.92h0.06l17.25,1.11a0.88,0.88,0,0,1,.8.69,11.53,11.53,0,0,0,.35,1.29,0.88,0.88,0,0,1-.45,1.06l-15.35,7.52A0.87,0.87,0,0,1,13548.66,10313.32Z" transform="translate(-13545.5 -10270.65)"/><path class="a" d="M13588.17,10299.5a0.88,0.88,0,0,1-.86-0.71,11.69,11.69,0,0,0-.31-1.27,0.88,0.88,0,0,1,.37-1l14.63-9.18a0.88,0.88,0,0,1,1.25.36,30.17,30.17,0,0,1,2.84,9.74,0.88,0.88,0,0,1-.81,1l-17,1.09h-0.06Z" transform="translate(-13545.5 -10270.65)"/><path class="a" d="M13571.51,10290.11a0.88,0.88,0,0,1-.76-0.44l-8.42-14.9a0.88,0.88,0,0,1,.38-1.22,30.16,30.16,0,0,1,10.63-2.89h0.07a0.88,0.88,0,0,1,.88.88v17.17a0.88,0.88,0,0,1-.7.86,11.59,11.59,0,0,0-1.75.5A0.87,0.87,0,0,1,13571.51,10290.11Z" transform="translate(-13545.5 -10270.65)"/></svg>