<svg xmlns="http://www.w3.org/2000/svg" viewBox="0 0 60.75 53.81"><defs><style>.a{fill:#cfd7e4;}.b{fill:#ef7ead;}</style></defs><title>meter-three-icon</title><path d="M13657,10300a1,1,0,0,1-.65,1.17,0.86,0.86,0,0,1,.65,1.06v0.29c0,1-.51,1.41-1.88,1.41a10.28,10.28,0,0,1-2.1-.23v-1.32h0.88l0.09,0.49a7.67,7.67,0,0,0,1.12.08c0.53,0,.65-0.12.65-0.55v-0.23c0-.58-0.2-0.58-1.17-0.58H13654v-1h0.65c1,0,1.17,0,1.17-.63v-0.17c0-.43-0.15-0.57-0.65-0.57a8.1,8.1,0,0,0-1.08.09l-0.09.53h-0.88v-1.35a10.26,10.26,0,0,1,2.06-.26c1.39,0,1.88.39,1.88,1.43v0.28Z" transform="translate(-13624.71 -10270.65)"/><path class="a" d="M13645.46,10293.84a0.87,0.87,0,0,1-.46-0.13l-14.47-9.09a0.88,0.88,0,0,1-.25-1.25,30.48,30.48,0,0,1,7.29-7.26,0.88,0.88,0,0,1,.5-0.16l0.19,0a0.88,0.88,0,0,1,.57.42l8.48,15a0.88,0.88,0,0,1-.16,1.07,11.71,11.71,0,0,0-1,1.06A0.87,0.87,0,0,1,13645.46,10293.84Z" transform="translate(-13624.71 -10270.65)"/><path class="b" d="M13636.1,10324.46a0.88,0.88,0,0,1-.56-0.21,30.54,30.54,0,0,1-6.13-7,0.88,0.88,0,0,1,.35-1.26l15.51-7.6a0.88,0.88,0,0,1,1,.21,11.78,11.78,0,0,0,1.29,1.26,0.88,0.88,0,0,1,.11,1.23l-10.94,13a0.88,0.88,0,0,1-.59.31h-0.08Z" transform="translate(-13624.71 -10270.65)"/><path class="a" d="M13674.06,10324.46H13674a0.88,0.88,0,0,1-.59-0.31l-10.94-13a0.88,0.88,0,0,1,.11-1.23,11.82,11.82,0,0,0,1.28-1.25,0.88,0.88,0,0,1,1-.21l15.52,7.6a0.88,0.88,0,0,1,.35,1.26,30.54,30.54,0,0,1-6.12,7A0.88,0.88,0,0,1,13674.06,10324.46Z" transform="translate(-13624.71 -10270.65)"/><path class="a" d="M13682.29,10313.34a0.87,0.87,0,0,1-.39-0.09l-15.34-7.52a0.88,0.88,0,0,1-.44-1.06,11.56,11.56,0,0,0,.36-1.31,0.88,0.88,0,0,1,.8-0.69l17.25-1.11h0.06a0.88,0.88,0,0,1,.87.92,30.2,30.2,0,0,1-2.36,10.33A0.88,0.88,0,0,1,13682.29,10313.34Z" transform="translate(-13624.71 -10270.65)"/><path class="b" d="M13642.79,10299.5h-0.06l-17-1.09a0.88,0.88,0,0,1-.81-1,30.17,30.17,0,0,1,2.83-9.72,0.88,0.88,0,0,1,1.25-.36l14.63,9.18a0.88,0.88,0,0,1,.37,1,11.67,11.67,0,0,0-.31,1.25A0.88,0.88,0,0,1,13642.79,10299.5Z" transform="translate(-13624.71 -10270.65)"/><path class="a" d="M13659.41,10290.1a0.87,0.87,0,0,1-.3-0.05,11.6,11.6,0,0,0-1.78-.5,0.88,0.88,0,0,1-.71-0.86v-17.16a0.88,0.88,0,0,1,.88-0.87h0.07a30.16,30.16,0,0,1,10.63,2.87,0.88,0.88,0,0,1,.38,1.22l-8.42,14.9A0.88,0.88,0,0,1,13659.41,10290.1Z" transform="translate(-13624.71 -10270.65)"/><path class="a" d="M13664.68,10293.82a0.87,0.87,0,0,1-.67-0.31,11.76,11.76,0,0,0-1-1.07,0.88,0.88,0,0,1-.17-1.07l8.48-15a0.87,0.87,0,0,1,.57-0.42l0.19,0a0.88,0.88,0,0,1,.5.16,30.48,30.48,0,0,1,7.3,7.27,0.88,0.88,0,0,1-.25,1.25l-14.48,9.09A0.87,0.87,0,0,1,13664.68,10293.82Z" transform="translate(-13624.71 -10270.65)"/><path class="b" d="M13627.86,10313.32a0.88,0.88,0,0,1-.81-0.53,30.19,30.19,0,0,1-2.35-10.31,0.88,0.88,0,0,1,.87-0.92h0.06l17.25,1.11a0.88,0.88,0,0,1,.8.69,11.53,11.53,0,0,0,.35,1.29,0.88,0.88,0,0,1-.45,1.06l-15.35,7.52A0.87,0.87,0,0,1,13627.86,10313.32Z" transform="translate(-13624.71 -10270.65)"/><path class="a" d="M13667.37,10299.5a0.88,0.88,0,0,1-.86-0.71,11.69,11.69,0,0,0-.31-1.27,0.88,0.88,0,0,1,.37-1l14.63-9.18a0.88,0.88,0,0,1,1.25.36,30.17,30.17,0,0,1,2.84,9.74,0.88,0.88,0,0,1-.81,1l-17,1.09h-0.06Z" transform="translate(-13624.71 -10270.65)"/><path class="a" d="M13650.71,10290.11a0.88,0.88,0,0,1-.76-0.44l-8.42-14.9a0.88,0.88,0,0,1,.38-1.22,30.16,30.16,0,0,1,10.63-2.89h0.07a0.88,0.88,0,0,1,.88.88v17.17a0.88,0.88,0,0,1-.7.86,11.59,11.59,0,0,0-1.75.5A0.87,0.87,0,0,1,13650.71,10290.11Z" transform="translate(-13624.71 -10270.65)"/></svg>