<svg xmlns="http://www.w3.org/2000/svg" viewBox="0 0 43.27 56.46"><defs><style>.a{fill:#5692f0;}</style></defs><title>correct-provider-data-icon</title><path class="a" d="M13819.47,10711.21a8,8,0,1,0,8,8A8,8,0,0,0,13819.47,10711.21Zm-1.88,12.49-3-3,1.51-1.51,1.49,1.49,5.24-5.24,1.51,1.51Zm-8.73-4.5a10.54,10.54,0,0,1,.38-2.76h-25.05v51.24h38.43v-38.34A10.61,10.61,0,0,1,13808.86,10719.2Zm-4.76,32.53h-13.22v-2h13.22v2Zm4.72-5.79h-17.94v-2h17.94v2Zm4-5.79h-22v-2h22v2Zm3.08-5.79h-25v-2h25v2Z" transform="translate(-13784.18 -10711.21)"/></svg>