<svg xmlns="http://www.w3.org/2000/svg" viewBox="0 0 30.95 50.37"><defs><style>.a{fill:#4d6892;}</style></defs><title>icon-lightbulb</title><path class="a" d="M14026.73,10502.25h-0.15c-8.5,0-15.4,6.54-15.4,14.61,0,4.63,3.5,7.86,5.46,11.89a15.75,15.75,0,0,1,1.06,2.77,20.82,20.82,0,0,1,.53,2.89c0.24,1.75.41,3.38,2,4.47h12.88c1.56-1.1,1.74-2.72,2-4.47a16,16,0,0,1,1.6-5.66,47.81,47.81,0,0,1,2.82-4.67c1.41-2.22,2.65-4.47,2.65-7.22C14042.13,10508.79,14035.24,10502.25,14026.73,10502.25Zm-4.4,8.68h0c-1.93.56-2.77,2.72-2.89,4.39h0a1.89,1.89,0,0,1-3.78,0c0-.09,0-0.27,0-0.27,0.29-3.79,2.49-6.82,5.61-7.73,0,0,.28,0,0.43,0A1.89,1.89,0,0,1,14022.33,10510.92Z" transform="translate(-14011.19 -10502.25)"/><path class="a" d="M14031.5,10540.76h-9.69a1.81,1.81,0,1,0,0,3.56h9.69A1.81,1.81,0,1,0,14031.5,10540.76Z" transform="translate(-14011.19 -10502.25)"/><path class="a" d="M14031.3,10546H14022a1.73,1.73,0,1,0,0,3.41h9.29A1.73,1.73,0,1,0,14031.3,10546Z" transform="translate(-14011.19 -10502.25)"/><path class="a" d="M14025.25,10552.62h2.81a1.74,1.74,0,0,0,1.85-1.45h-6.52A1.74,1.74,0,0,0,14025.25,10552.62Z" transform="translate(-14011.19 -10502.25)"/></svg>