<svg xmlns="http://www.w3.org/2000/svg" viewBox="0 0 110 110"><defs><style>.\34 0cec8e1-cd8e-4e8c-b62e-bfd22d4bcf10{fill:#f6f6fd;}.\34 777e800-30d8-4eb4-86c3-5155348ffd7f{fill:#d3d3d3;}.\38 6ae8c9d-346f-4bcf-bf51-aae443f896b5{fill:#4d5152;}.\39 dd546ce-a21f-45f9-8002-4e945435a138{fill:#acf0f2;}.\37 944d447-3970-49b3-ac76-ff9596be92ae{fill:#fff;}</style></defs><title>icon-search</title><g id="56eae6a7-0987-4b3a-89a5-b1122e770e8d" data-name="Layer 2"><g id="2d441d1a-f23e-4862-af9b-c5cd77ea8596" data-name="Layer 1"><circle class="40cec8e1-cd8e-4e8c-b62e-bfd22d4bcf10" cx="55" cy="55" r="55"/><path class="4777e800-30d8-4eb4-86c3-5155348ffd7f" d="M53.12,61.16,72.34,80.38a2.63,2.63,0,0,0,3.71,0l4.33-4.33a2.63,2.63,0,0,0,0-3.71L61.16,53.12a17.25,17.25,0,0,1-8,8Z"/><path class="86ae8c9d-346f-4bcf-bf51-aae443f896b5" d="M61.58,56.37,79,73.76a.63.63,0,0,1,0,.88L74.64,79a.63.63,0,0,1-.88,0L56.37,61.58a19.1,19.1,0,0,0,5.21-5.21m-.43-3.26a17.25,17.25,0,0,1-8,8L72.34,80.38a2.63,2.63,0,0,0,3.71,0l4.33-4.33a2.63,2.63,0,0,0,0-3.71L61.16,53.12Z"/><path class="9dd546ce-a21f-45f9-8002-4e945435a138" d="M34,34a17.48,17.48,0,1,0,24.73,0A17.49,17.49,0,0,0,34,34Z"/><path class="86ae8c9d-346f-4bcf-bf51-aae443f896b5" d="M46.34,30.85a15.47,15.47,0,0,1,6.79,29.4,15.61,15.61,0,0,1-6.81,1.57,15.48,15.48,0,0,1,0-31m0-2A17.48,17.48,0,1,0,58.71,34a17.44,17.44,0,0,0-12.37-5.12Z"/><circle class="7944d447-3970-49b3-ac76-ff9596be92ae" cx="47.26" cy="37.13" r="4.1" transform="translate(-12.41 44.3) rotate(-45)"/></g></g></svg>