<svg xmlns="http://www.w3.org/2000/svg" viewBox="0 0 110 110"><defs><style>.\33 02367eb-d186-41c1-bb3b-296ebfd10123{fill:#fbb03b;}.\39 79a36a9-f0a5-4ec7-b639-7ddcae84bdf0{fill:#f6f6fd;}.f743e2b6-ff8f-4714-acd7-a03ce526afd9{fill:#67dde0;}.b0e6cb51-6a86-4d36-a296-06f7c099ded5,.e1042b8d-8d88-4181-a7e1-c343c4e47b57,.ef54fa6f-e72d-482d-976d-565426126570,.f2ca9d43-5d71-4b1a-8aa9-d928fe69f127,.f743e2b6-ff8f-4714-acd7-a03ce526afd9{stroke:#4d5152;stroke-miterlimit:10;stroke-width:2px;}.e1042b8d-8d88-4181-a7e1-c343c4e47b57{fill:#f9f9f9;}.b0e6cb51-6a86-4d36-a296-06f7c099ded5{fill:#fff;}.f2ca9d43-5d71-4b1a-8aa9-d928fe69f127{fill:#ffb957;}.ef54fa6f-e72d-482d-976d-565426126570{fill:none;}.\37 fc2e648-f78c-420f-9b48-eafd4963b5b2{fill:#f28c13;}</style></defs><title>icon-folder-open</title><g id="c88f2c7a-1192-4079-b38b-fc8befa06109" data-name="Layer 2"><g id="bac28e14-e283-4c24-98c3-e5a60ee37643" data-name="Layer 1"><circle class="302367eb-d186-41c1-bb3b-296ebfd10123" cx="55" cy="55" r="55"/><circle class="979a36a9-f0a5-4ec7-b639-7ddcae84bdf0" cx="55" cy="55" r="55"/><polygon class="f743e2b6-ff8f-4714-acd7-a03ce526afd9" points="42.32 60.87 71.42 77 80.13 77 91.91 61.64 42.32 60.87"/><polygon class="e1042b8d-8d88-4181-a7e1-c343c4e47b57" points="38.13 68.69 52.62 77 79.32 77 86.94 45.29 46.9 45.29 38.13 68.69"/><rect class="b0e6cb51-6a86-4d36-a296-06f7c099ded5" x="29.71" y="33" width="46.29" height="20.32"/><polygon class="f2ca9d43-5d71-4b1a-8aa9-d928fe69f127" points="79.32 77 26.39 77 26.39 37.09 44.73 37.09 49.52 42.63 79.32 42.63 79.32 77"/><line class="ef54fa6f-e72d-482d-976d-565426126570" x1="44.23" y1="43.32" x2="30.5" y2="43.32"/><line class="ef54fa6f-e72d-482d-976d-565426126570" x1="44.23" y1="47" x2="30.5" y2="47"/><rect class="7fc2e648-f78c-420f-9b48-eafd4963b5b2" x="27.39" y="72.18" width="50.92" height="3.81"/><line class="ef54fa6f-e72d-482d-976d-565426126570" x1="64.36" y1="32.07" x2="66.36" y2="32.07"/><line class="ef54fa6f-e72d-482d-976d-565426126570" x1="68.36" y1="32.07" x2="70.36" y2="32.07"/><line class="ef54fa6f-e72d-482d-976d-565426126570" x1="72.36" y1="32.07" x2="74.36" y2="32.07"/></g></g></svg>