<svg xmlns="http://www.w3.org/2000/svg" viewBox="0 0 110 110"><defs><style>.\34 11e5338-599d-4545-a0c8-129f95633e84{fill:#f6f6fd;}.\36 7fb92e8-2c00-4d95-ab93-0dffbc705def{fill:#c69c6d;}.dc1f7318-79b1-46c6-899a-0d9306620e82{fill:none;}.acb13a83-32e4-4c10-a390-90d06e06b1ed,.dc1f7318-79b1-46c6-899a-0d9306620e82{stroke:#4d5152;stroke-miterlimit:10;stroke-width:2px;}.acb13a83-32e4-4c10-a390-90d06e06b1ed{fill:#fff;}.\31 25ef83d-dca4-4b65-a19d-a4345a7ce721{fill:#4d5152;}.\37 8a5bca9-a651-4b83-a4be-484f83145189{fill:#acf0f2;}</style></defs><title>icon-claim-vision</title><g id="d5c01155-9538-45ba-856b-86f7145e177b" data-name="Layer 2"><g id="621102d6-4366-4d20-959f-a9bdd5f20ed3" data-name="Layer 1"><circle class="411e5338-599d-4545-a0c8-129f95633e84" cx="55" cy="55" r="55"/><rect class="67fb92e8-2c00-4d95-ab93-0dffbc705def" x="33.32" y="30.63" width="43.35" height="50.79"/><rect class="dc1f7318-79b1-46c6-899a-0d9306620e82" x="33.32" y="30.63" width="43.35" height="50.79"/><rect class="acb13a83-32e4-4c10-a390-90d06e06b1ed" x="38.6" y="30.63" width="32.8" height="41.72"/><path class="acb13a83-32e4-4c10-a390-90d06e06b1ed" d="M68,28.72h-8V27.23a4.94,4.94,0,1,0-9.88,0v1.49H42v3.82H68Z"/><circle class="125ef83d-dca4-4b65-a19d-a4345a7ce721" cx="55" cy="26.64" r="1.35"/><circle class="78a5bca9-a651-4b83-a4be-484f83145189" cx="48.26" cy="57.69" r="4.94"/><circle class="78a5bca9-a651-4b83-a4be-484f83145189" cx="61.74" cy="57.69" r="4.94"/><circle class="dc1f7318-79b1-46c6-899a-0d9306620e82" cx="48.26" cy="57.69" r="4.94"/><circle class="dc1f7318-79b1-46c6-899a-0d9306620e82" cx="61.74" cy="57.69" r="4.94"/><line class="dc1f7318-79b1-46c6-899a-0d9306620e82" x1="52.75" y1="55.9" x2="57.25" y2="55.9"/><line class="dc1f7318-79b1-46c6-899a-0d9306620e82" x1="43.32" y1="57.69" x2="43.32" y2="42.42"/><line class="dc1f7318-79b1-46c6-899a-0d9306620e82" x1="66.68" y1="57.69" x2="66.68" y2="42.42"/><path class="dc1f7318-79b1-46c6-899a-0d9306620e82" d="M66.68,42.42a1.35,1.35,0,0,0-1.35-1.35"/><line class="dc1f7318-79b1-46c6-899a-0d9306620e82" x1="65.33" y1="41.08" x2="63.53" y2="41.08"/><path class="dc1f7318-79b1-46c6-899a-0d9306620e82" d="M43.32,42.42a1.35,1.35,0,0,1,1.35-1.35"/><line class="dc1f7318-79b1-46c6-899a-0d9306620e82" x1="44.67" y1="41.08" x2="46.47" y2="41.08"/><path class="dc1f7318-79b1-46c6-899a-0d9306620e82" d="M45.57,57.69A2.69,2.69,0,0,1,48.26,55"/><path class="dc1f7318-79b1-46c6-899a-0d9306620e82" d="M59,57.69A2.69,2.69,0,0,1,61.74,55"/></g></g></svg>