<svg xmlns="http://www.w3.org/2000/svg" viewBox="0 0 110 110"><defs><style>.\38 6b24d8b-40e7-4a58-9be6-779bab053e21{fill:#f6f6fd;}.d7a0b434-2762-4d2b-b86c-abc74766dc12{fill:#76e1e5;}.ea66fb52-331c-4cd9-875f-bb2832c9ddd0{fill:none;stroke:#535859;stroke-linejoin:round;stroke-width:2px;}.\36 7cb7444-2bc6-48c5-9edd-bbb9802c5159{fill:#fff;}.\33 7ddcaa6-31bb-47f3-9322-3f9c227b0688{fill:#f59d15;}.\30 2199aea-7a1d-48dc-9a52-349ca2db6f74{fill:#b7f1f4;}.\32 4dd7082-837a-4e3f-b1b7-6d10e3326a47{fill:#ffc469;}</style></defs><title>icon-traditional</title><g id="324a5fe4-8df4-4bc4-bab3-45b27a3f0387" data-name="Layer 2"><g id="92f412f9-b601-4835-98c4-f5b503c36398" data-name="Layer 1"><circle class="86b24d8b-40e7-4a58-9be6-779bab053e21" cx="55" cy="55" r="55"/><rect class="d7a0b434-2762-4d2b-b86c-abc74766dc12" x="24" y="34" width="62" height="46"/><rect class="ea66fb52-331c-4cd9-875f-bb2832c9ddd0" x="24" y="34" width="62" height="46"/><polygon class="67cb7444-2bc6-48c5-9edd-bbb9802c5159" points="55 80 59 76 82 76 82 30 59 30 55 34 51 30 28 30 28 76 51 76 55 80"/><polygon class="ea66fb52-331c-4cd9-875f-bb2832c9ddd0" points="82 76 82 30 59 30 55 34 51 30 28 30 28 76 51 76 55 80 59 76 82 76"/><line class="ea66fb52-331c-4cd9-875f-bb2832c9ddd0" x1="55" y1="34" x2="55" y2="80"/><line class="ea66fb52-331c-4cd9-875f-bb2832c9ddd0" x1="31" y1="54" x2="52" y2="54"/><line class="ea66fb52-331c-4cd9-875f-bb2832c9ddd0" x1="31" y1="58" x2="52" y2="58"/><line class="ea66fb52-331c-4cd9-875f-bb2832c9ddd0" x1="31" y1="62" x2="52" y2="62"/><line class="ea66fb52-331c-4cd9-875f-bb2832c9ddd0" x1="31" y1="66" x2="52" y2="66"/><line class="ea66fb52-331c-4cd9-875f-bb2832c9ddd0" x1="31" y1="70" x2="52" y2="70"/><rect class="37ddcaa6-31bb-47f3-9322-3f9c227b0688" x="31" y="35" width="21" height="16"/><line class="ea66fb52-331c-4cd9-875f-bb2832c9ddd0" x1="58" y1="36" x2="79" y2="36"/><line class="ea66fb52-331c-4cd9-875f-bb2832c9ddd0" x1="58" y1="40" x2="79" y2="40"/><line class="ea66fb52-331c-4cd9-875f-bb2832c9ddd0" x1="58" y1="44" x2="79" y2="44"/><line class="ea66fb52-331c-4cd9-875f-bb2832c9ddd0" x1="58" y1="60" x2="79" y2="60"/><line class="ea66fb52-331c-4cd9-875f-bb2832c9ddd0" x1="58" y1="64" x2="79" y2="64"/><line class="ea66fb52-331c-4cd9-875f-bb2832c9ddd0" x1="58" y1="68" x2="79" y2="68"/><rect class="02199aea-7a1d-48dc-9a52-349ca2db6f74" x="58" y="47" width="21" height="10"/><line class="ea66fb52-331c-4cd9-875f-bb2832c9ddd0" x1="60" y1="52" x2="62" y2="52"/><line class="ea66fb52-331c-4cd9-875f-bb2832c9ddd0" x1="64" y1="52" x2="73" y2="52"/><line class="ea66fb52-331c-4cd9-875f-bb2832c9ddd0" x1="75" y1="52" x2="77" y2="52"/><rect class="24dd7082-837a-4e3f-b1b7-6d10e3326a47" x="33" y="37" width="17" height="2"/><rect class="24dd7082-837a-4e3f-b1b7-6d10e3326a47" x="33" y="41" width="17" height="8"/></g></g></svg>