<svg xmlns="http://www.w3.org/2000/svg" viewBox="0 0 110 110"><defs><style>.bd4e9656-62f2-4396-8192-49de794c1534{fill:#f6f6fd;}.\32 758bd79-0933-492f-85d5-e93ef452775b{fill:#fff;}.caccb189-dfb6-491a-bfcb-a2357927b9cb{fill:#ffb957;}.c44ea323-b494-46da-a7aa-a8956fdb413d,.caccb189-dfb6-491a-bfcb-a2357927b9cb,.d47278b9-d09b-4eb3-a574-3d0edda76bec{stroke:#535859;stroke-linejoin:round;stroke-width:2px;}.d47278b9-d09b-4eb3-a574-3d0edda76bec{fill:none;}.c44ea323-b494-46da-a7aa-a8956fdb413d{fill:#ff6d5a;}</style></defs><title>icon-task</title><g id="cebf1805-780a-434a-b841-8c0f51de3d86" data-name="Layer 2"><g id="db86fe2c-1e7e-451c-9ad4-d9b304ec0e20" data-name="Layer 1"><circle class="bd4e9656-62f2-4396-8192-49de794c1534" cx="55" cy="55" r="55"/><path class="2758bd79-0933-492f-85d5-e93ef452775b" d="M66.53,34.36l4.56-4.56a3.22,3.22,0,0,1,4.56,0l4.56,4.56a3.22,3.22,0,0,1,0,4.56l-4.56,4.56"/><rect class="2758bd79-0933-492f-85d5-e93ef452775b" x="32.58" y="48.42" width="45.11" height="12.89" transform="translate(-22.64 55.06) rotate(-45)"/><polygon class="2758bd79-0933-492f-85d5-e93ef452775b" points="43.75 75.37 34.63 66.25 30.08 79.92 43.75 75.37"/><polygon class="caccb189-dfb6-491a-bfcb-a2357927b9cb" points="43.75 75.37 30.08 79.92 34.63 66.25 66.53 34.35 75.64 43.47 43.75 75.37"/><line class="d47278b9-d09b-4eb3-a574-3d0edda76bec" x1="71.09" y1="38.91" x2="39.19" y2="70.81"/><line class="d47278b9-d09b-4eb3-a574-3d0edda76bec" x1="34.63" y1="66.25" x2="43.75" y2="75.37"/><path class="c44ea323-b494-46da-a7aa-a8956fdb413d" d="M66.53,34.36l4.56-4.56a3.22,3.22,0,0,1,4.56,0l4.56,4.56a3.22,3.22,0,0,1,0,4.56l-4.56,4.56"/></g></g></svg>