<svg xmlns="http://www.w3.org/2000/svg" viewBox="0 0 110 110"><defs><style>.d24d096c-eccd-4864-adbc-a4c73f925f57{fill:#f6f6fd;}.\32 2b20589-44b6-4696-8448-5b042e869824{fill:#76e1e5;}.a0e6a528-fd16-4448-bb69-6031744d974c{fill:#fff;}.\36 2d48350-1e3d-4417-8ab1-7608c6c8618d{fill:#b7f1f4;}.\35 7910043-4dcc-4521-b786-335d4c085604{fill:none;stroke:#535859;stroke-linejoin:round;stroke-width:2px;}</style></defs><title>icon-provider-doc</title><g id="f142ab93-b83b-4312-aa70-81cd6a51c48e" data-name="Layer 2"><g id="39f99768-cacd-419a-92b7-efd159b54e7b" data-name="Layer 1"><circle class="d24d096c-eccd-4864-adbc-a4c73f925f57" cx="55" cy="55" r="55"/><path class="22b20589-44b6-4696-8448-5b042e869824" d="M70,64.5l-6-3c0,2.21-4,4-9,4s-9-1.79-9-4l-6,3c-6,2-11,4.92-11,11v9H81v-9C81,69.42,76,66.5,70,64.5Z"/><path class="a0e6a528-fd16-4448-bb69-6031744d974c" d="M55,65.5c5,0,9-1.79,9-4,0,0-3-2-3-3v-3H49v3c0,1-3,3-3,3C46,63.71,50,65.5,55,65.5Z"/><path class="62d48350-1e3d-4417-8ab1-7608c6c8618d" d="M67,36.5l-1,1H44l-1-1,1-7c.5-2.22,1.79-4,4-4H62c2.21,0,3.59,1.75,4,4Z"/><path class="a0e6a528-fd16-4448-bb69-6031744d974c" d="M44,37.5v7l1,1c0,5,3,13,10,13s10-8,10-13l1-1v-7Z"/><line class="57910043-4dcc-4521-b786-335d4c085604" x1="39" y1="80.5" x2="39" y2="84.5"/><line class="57910043-4dcc-4521-b786-335d4c085604" x1="71" y1="80.5" x2="71" y2="84.5"/><path class="57910043-4dcc-4521-b786-335d4c085604" d="M49,55.5v3c0,1-3,3-3,3l-6,3c-6,2-11,4.92-11,11v9"/><path class="57910043-4dcc-4521-b786-335d4c085604" d="M61,55.5v3c0,1,3,3,3,3l6,3c6,2,11,4.92,11,11v9"/><line class="57910043-4dcc-4521-b786-335d4c085604" x1="45" y1="41.5" x2="44" y2="41.5"/><path class="57910043-4dcc-4521-b786-335d4c085604" d="M44,40.5v4l1,1c0,5,3,13,10,13s10-8,10-13l1-1v-4"/><path class="57910043-4dcc-4521-b786-335d4c085604" d="M67,36.5l-1,1H44l-1-1,1-7c.5-2.22,1.79-4,4-4H62c2.21,0,3.59,1.75,4,4Z"/><line class="57910043-4dcc-4521-b786-335d4c085604" x1="55" y1="28.5" x2="55" y2="34.5"/><line class="57910043-4dcc-4521-b786-335d4c085604" x1="52" y1="31.5" x2="58" y2="31.5"/><polyline class="57910043-4dcc-4521-b786-335d4c085604" points="46 48.5 55 45.5 64 48.5"/><line class="57910043-4dcc-4521-b786-335d4c085604" x1="68" y1="75.5" x2="60" y2="75.5"/><path class="57910043-4dcc-4521-b786-335d4c085604" d="M64,61.5c0,2.21-4,4-9,4s-9-1.79-9-4"/></g></g></svg>