<svg xmlns="http://www.w3.org/2000/svg" viewBox="0 0 110 110"><defs><style>.\31 eae270b-096b-4249-97c3-1901925cf1f2{fill:#f6f6fd;}.\33 1661c4d-ae5c-4b98-ad08-30f9fca0a877{fill:#fff;}.a0cc6eec-cc64-466d-ab1b-881ade6974ae{fill:none;stroke:#4d5152;stroke-linejoin:round;stroke-width:2px;}.\31 6f7e28e-8f82-4dc3-99b5-2f740c39283c{fill:#67dde0;}.a6164de9-9411-435a-a98c-457be6a6a44f{fill:#f28c13;}</style></defs><title>icon-schedule</title><g id="10e3c9d7-1e58-4584-b6d3-35ff55362ec8" data-name="Layer 2"><g id="2adc3d7b-4e9d-4d6c-ae6e-85572c7d090c" data-name="Layer 1"><circle class="1eae270b-096b-4249-97c3-1901925cf1f2" cx="55" cy="55" r="55"/><rect class="31661c4d-ae5c-4b98-ad08-30f9fca0a877" x="24" y="38" width="62" height="44"/><rect class="31661c4d-ae5c-4b98-ad08-30f9fca0a877" x="24" y="28" width="62" height="10"/><rect class="a0cc6eec-cc64-466d-ab1b-881ade6974ae" x="24" y="38" width="62" height="44"/><rect class="16f7e28e-8f82-4dc3-99b5-2f740c39283c" x="44" y="45" width="6" height="6"/><rect class="16f7e28e-8f82-4dc3-99b5-2f740c39283c" x="52" y="45" width="6" height="6"/><rect class="16f7e28e-8f82-4dc3-99b5-2f740c39283c" x="60" y="45" width="6" height="6"/><rect class="a6164de9-9411-435a-a98c-457be6a6a44f" x="68" y="45" width="6" height="6"/><rect class="a6164de9-9411-435a-a98c-457be6a6a44f" x="76" y="45" width="6" height="6"/><rect class="16f7e28e-8f82-4dc3-99b5-2f740c39283c" x="28" y="53" width="6" height="6"/><rect class="16f7e28e-8f82-4dc3-99b5-2f740c39283c" x="36" y="53" width="6" height="6"/><rect class="16f7e28e-8f82-4dc3-99b5-2f740c39283c" x="44" y="53" width="6" height="6"/><rect class="16f7e28e-8f82-4dc3-99b5-2f740c39283c" x="52" y="53" width="6" height="6"/><rect class="16f7e28e-8f82-4dc3-99b5-2f740c39283c" x="60" y="53" width="6" height="6"/><rect class="a6164de9-9411-435a-a98c-457be6a6a44f" x="68" y="53" width="6" height="6"/><rect class="a6164de9-9411-435a-a98c-457be6a6a44f" x="76" y="53" width="6" height="6"/><rect class="16f7e28e-8f82-4dc3-99b5-2f740c39283c" x="28" y="61" width="6" height="6"/><rect class="16f7e28e-8f82-4dc3-99b5-2f740c39283c" x="36" y="61" width="6" height="6"/><rect class="16f7e28e-8f82-4dc3-99b5-2f740c39283c" x="44" y="61" width="6" height="6"/><rect class="16f7e28e-8f82-4dc3-99b5-2f740c39283c" x="52" y="61" width="6" height="6"/><rect class="16f7e28e-8f82-4dc3-99b5-2f740c39283c" x="60" y="61" width="6" height="6"/><rect class="a6164de9-9411-435a-a98c-457be6a6a44f" x="68" y="61" width="6" height="6"/><rect class="a6164de9-9411-435a-a98c-457be6a6a44f" x="76" y="61" width="6" height="6"/><rect class="16f7e28e-8f82-4dc3-99b5-2f740c39283c" x="28" y="69" width="6" height="6"/><rect class="16f7e28e-8f82-4dc3-99b5-2f740c39283c" x="36" y="69" width="6" height="6"/><rect class="16f7e28e-8f82-4dc3-99b5-2f740c39283c" x="44" y="69" width="6" height="6"/><rect class="16f7e28e-8f82-4dc3-99b5-2f740c39283c" x="52" y="69" width="6" height="6"/><rect class="16f7e28e-8f82-4dc3-99b5-2f740c39283c" x="60" y="69" width="6" height="6"/><polyline class="a0cc6eec-cc64-466d-ab1b-881ade6974ae" points="24 35 24 28 86 28 86 35"/><line class="a0cc6eec-cc64-466d-ab1b-881ade6974ae" x1="30" y1="32" x2="80" y2="32"/><line class="a0cc6eec-cc64-466d-ab1b-881ade6974ae" x1="60" y1="51" x2="66" y2="45"/><line class="a0cc6eec-cc64-466d-ab1b-881ade6974ae" x1="60" y1="45" x2="66" y2="51"/><line class="a0cc6eec-cc64-466d-ab1b-881ade6974ae" x1="36" y1="67" x2="42" y2="61"/><line class="a0cc6eec-cc64-466d-ab1b-881ade6974ae" x1="36" y1="61" x2="42" y2="67"/><line class="a0cc6eec-cc64-466d-ab1b-881ade6974ae" x1="40" y1="48" x2="38" y2="48"/><line class="a0cc6eec-cc64-466d-ab1b-881ade6974ae" x1="32" y1="48" x2="30" y2="48"/><line class="a0cc6eec-cc64-466d-ab1b-881ade6974ae" x1="80" y1="72" x2="78" y2="72"/><line class="a0cc6eec-cc64-466d-ab1b-881ade6974ae" x1="72" y1="72" x2="70" y2="72"/></g></g></svg>