<svg xmlns="http://www.w3.org/2000/svg" viewBox="0 0 211.81 211.81"><defs><style>.a{isolation:isolate;}.b,.c{fill:#db2a50;}.c{opacity:0.7;mix-blend-mode:multiply;}</style></defs><title>360-icon</title><g class="a"><circle class="b" cx="104.11" cy="86.51" r="18.92"/><path class="b" d="M91.87,95.62V106s-12.77,5.36-17.67,10.07-6.72,12.36-6.72,12.36,33.92,22.81,73.28,0c0,0-1.82-7.65-6.72-12.36S116.35,106,116.35,106V96"/><path class="b" d="M211.81,105.9A105.9,105.9,0,1,0,0,105.9c0,.14,0,.29,0,.43s0,.14,0,.22,0,.43,0,.65a105.9,105.9,0,0,0,211.78,0c0-.22,0-.43,0-.65s0-.14,0-.22S211.81,106,211.81,105.9ZM105.9,160.29a54.38,54.38,0,0,1-54.37-53.74c0-.22,0-.43,0-.65a54.39,54.39,0,1,1,108.77,0c0,.22,0,.43,0,.65A54.38,54.38,0,0,1,105.9,160.29Z"/><path class="c" d="M186.05,132.31a25.76,25.76,0,0,1-25.76-25.76h0a54.37,54.37,0,0,1-108.74,0h0A25.76,25.76,0,0,0,0,106.33c0,.07,0,.14,0,.22s0,.43,0,.65a105.9,105.9,0,0,0,211.78,0A25.75,25.75,0,0,1,186.05,132.31Z"/></g></svg>