<svg xmlns="http://www.w3.org/2000/svg" viewBox="0 0 43.01 56"><defs><style>.a{fill:#4d6892;}</style></defs><title>health-bill-icon</title><path class="a" d="M13780.73,10914.43v56h43v-56h-43Zm15.52,11.41h4.15v-4.15h3.68v4.15h4.15v3.68h-4.15v4.15h-3.68v-4.15h-4.15v-3.68Zm9.65,37.21c0,1.67-.88,2.44-2.93,2.52v0.86h-1.59v-0.86a10.16,10.16,0,0,1-2.71-.58v-2.31h1.8l0.23,1.08a3.41,3.41,0,0,0,1.24.21v-2.15l-1.43-.34c-1.5-.43-1.94-0.88-1.94-2.37V10959c0-1.66.87-2.42,2.89-2.52v-1h1.58v1a11.7,11.7,0,0,1,2.59.45v2.46h-1.71l-0.25-1.13a3.28,3.28,0,0,0-1.1-.18v1.91l1.53,0.35a1.92,1.92,0,0,1,1.79,2.18v0.55Zm5.07-11.36h-17.46v-2H13811v2Zm0-5.38h-17.46v-2H13811v2Zm0-5.38h-17.46v-2H13811v2Z" transform="translate(-13780.73 -10914.43)"/></svg>