<svg xmlns="http://www.w3.org/2000/svg" viewBox="0 0 44.53 40.48"><defs><style>.a{fill:#4d6892;}</style></defs><title>icon-knowledge</title><rect class="a" x="18.21" y="23.27" width="8.11" height="6.09" rx="1.02" ry="1.02"/><path class="a" d="M13952.15,10535.13v0.46a3,3,0,0,1-3,3H13943a3,3,0,0,1-3-3v-0.46l-14.19-1.77a4.4,4.4,0,0,1-2-.81v13.17a2,2,0,0,0,2,2h40.46a2,2,0,0,0,2-2v-13.17a4.4,4.4,0,0,1-2,.81Z" transform="translate(-13923.82 -10507.26)"/><path class="a" d="M13966.31,10517.38h-40.46a2,2,0,0,0-2,2v9.1a2.71,2.71,0,0,0,2.25,2.55l13.95,1.74v-1.26a3,3,0,0,1,3-3h6.07a3,3,0,0,1,3,3v1.26l13.94-1.74a2.71,2.71,0,0,0,2.25-2.55v-9.1A2,2,0,0,0,13966.31,10517.38Z" transform="translate(-13923.82 -10507.26)"/><path class="a" d="M13940,10515.37v-3.47a1,1,0,0,1,1-1h10.12a1,1,0,0,1,1,1v3.47h4.06v-4a4.06,4.06,0,0,0-4.06-4.06H13940a4.06,4.06,0,0,0-4.06,4.06v4h4.06Z" transform="translate(-13923.82 -10507.26)"/></svg>