<svg xmlns="http://www.w3.org/2000/svg" viewBox="0 0 33.8 50.38"><defs><style>.a{fill:#4d6892;}.b{fill:#ffbe55;}</style></defs><title>attach-icon</title><path class="a" d="M13961.1,10453.38a2,2,0,0,1,2.67.85l-5.23-10.27c-3.39-6.66-11.06-9.57-17.09-6.5s-8.18,11-4.79,17.64l11.63,22.84h0l1.5,2.95a10.18,10.18,0,0,0,8.9,5.73,8.46,8.46,0,0,0,3.86-.92c4.51-2.3,6.13-8.19,3.61-13.14l-1-2h0l-12-24a6.21,6.21,0,1,0-11,5.61l11.53,22.89a2,2,0,1,0,3.57-1.8l-11.53-22.89a2.24,2.24,0,1,1,3.89-2l12,24h0l1,2c1.52,3,.68,6.47-1.86,7.76s-5.86-.07-7.37-3.06l-1.5-2.95h0l-11.63-22.84c-2.39-4.69-1-10.19,3-12.26s9.32,0.06,11.71,4.75l10.06,19.76h0l-4.82-9.46A2,2,0,0,1,13961.1,10453.38Z" transform="translate(-13935.05 -10436.23)"/><path class="b" d="M13968.64,10463.78l-4.85-9.53,0,0a2,2,0,0,0-3.55,1.84l4.82,9.46,0,0.06A2,2,0,1,0,13968.64,10463.78Z" transform="translate(-13935.05 -10436.23)"/></svg>