<svg xmlns="http://www.w3.org/2000/svg" viewBox="0 0 110 110"><defs><style>.e211a191-fa66-4440-9748-a8e9087dc7ac{fill:#fbb03b;}.\33 ac56782-4965-458e-b19a-8d152a1a5331{fill:#f6f6fd;}.\33 1950261-dbb1-4fcb-bbba-8d8ddccf5e69{fill:#fff;}.\31 d47e16f-867f-4b7a-9be3-4ce38c0b98cd{fill:none;stroke:#4d5152;stroke-linejoin:round;stroke-width:2px;}.\30 1daf215-df52-4440-92df-060b570c15b9{fill:#4d5152;}.\32 39557c8-16e4-4755-9b4a-90c6ff8cbdda{fill:#ffb957;}</style></defs><title>icon-id</title><g id="891789e1-2770-4818-8a8f-d0b1615b1631" data-name="Layer 2"><g id="1ce90387-3fbd-473a-a5cb-80a19f56224f" data-name="Layer 1"><circle class="e211a191-fa66-4440-9748-a8e9087dc7ac" cx="55" cy="55" r="55"/><circle class="3ac56782-4965-458e-b19a-8d152a1a5331" cx="55" cy="55" r="55"/><rect class="31950261-dbb1-4fcb-bbba-8d8ddccf5e69" x="28.46" y="38.79" width="53.08" height="39.82"/><rect class="1d47e16f-867f-4b7a-9be3-4ce38c0b98cd" x="28.46" y="38.79" width="53.08" height="39.82"/><rect class="01daf215-df52-4440-92df-060b570c15b9" x="57.82" y="67.76" width="10.08" height="2.04"/><rect class="01daf215-df52-4440-92df-060b570c15b9" x="57.82" y="58.46" width="13.68" height="2.04"/><rect class="01daf215-df52-4440-92df-060b570c15b9" x="57.82" y="53.81" width="16.75" height="2.04"/><rect class="01daf215-df52-4440-92df-060b570c15b9" x="57.82" y="49.16" width="19.1" height="2.04"/><path class="239557c8-16e4-4755-9b4a-90c6ff8cbdda" d="M33.08,49.16V69.81H35.3c.54-.33,1.51-.93,2.29-1.3a16.44,16.44,0,0,0,3.23-2.18c-.08-1-.46-5-.46-5a.53.53,0,0,1-.28.2c-.17,0-.43,0-.74-.67s-.66-2.39-.3-2.57.63.23.63.23A10,10,0,0,1,40,54.22C40.72,52.29,43.6,52,44.1,52s3.37.33,4.08,2.27a10,10,0,0,1,.33,4.28s.37-.37.63-.23,0,1.9-.3,2.57-.57.7-.74.67a.53.53,0,0,1-.28-.2s-.27,3.17-.46,5a16.43,16.43,0,0,0,3.23,2.18c.78.37,1.76,1,2.29,1.3h2.22V49.16Z"/><path class="01daf215-df52-4440-92df-060b570c15b9" d="M49.64,31.39v10H60.36v-10Zm7.58,5.47H52.78a1.41,1.41,0,0,1,0-2.82h4.44a1.41,1.41,0,0,1,0,2.82Z"/></g></g></svg>