<svg xmlns="http://www.w3.org/2000/svg" viewBox="0 0 110 110"><defs><style>.\39 5b32dda-47b6-461c-9ae3-f345d508179b{fill:#fbb03b;}.\35 532722f-286c-43b7-9eca-2e1c5bf245db{fill:#f6f6fd;}.\31 b6b1f60-adb5-49b1-b942-9a8f7fa794b1{fill:#fff;}.f5775754-7b8d-4b4f-8827-b356fcd3ec7c{fill:#f59d15;}.\39 1ed7b8e-6989-4925-b814-8841246ef6d3{fill:none;stroke:#535859;stroke-linejoin:round;stroke-width:2px;}</style></defs><title>icon-location</title><g id="b981f1d4-3f82-4b5a-bee9-208ec174e902" data-name="Layer 2"><g id="027c423c-d62a-46ba-9eca-6241fc2935fb" data-name="Layer 1"><circle class="95b32dda-47b6-461c-9ae3-f345d508179b" cx="55" cy="55" r="55"/><circle class="5532722f-286c-43b7-9eca-2e1c5bf245db" cx="55" cy="55" r="55"/><rect class="1b6b1f60-adb5-49b1-b942-9a8f7fa794b1" x="30" y="42" width="18" height="34"/><polyline class="1b6b1f60-adb5-49b1-b942-9a8f7fa794b1" points="80 76 80 30 48 30 48 76"/><rect class="f5775754-7b8d-4b4f-8827-b356fcd3ec7c" x="30" y="76" width="50" height="4"/><rect class="91ed7b8e-6989-4925-b814-8841246ef6d3" x="30" y="76" width="50" height="4"/><polyline class="91ed7b8e-6989-4925-b814-8841246ef6d3" points="48 42 30 42 30 73"/><polyline class="91ed7b8e-6989-4925-b814-8841246ef6d3" points="80 73 80 30 48 30 48 73"/><line class="91ed7b8e-6989-4925-b814-8841246ef6d3" x1="34" y1="48" x2="36" y2="48"/><line class="91ed7b8e-6989-4925-b814-8841246ef6d3" x1="38" y1="48" x2="40" y2="48"/><line class="91ed7b8e-6989-4925-b814-8841246ef6d3" x1="42" y1="48" x2="44" y2="48"/><line class="91ed7b8e-6989-4925-b814-8841246ef6d3" x1="34" y1="52" x2="36" y2="52"/><line class="91ed7b8e-6989-4925-b814-8841246ef6d3" x1="38" y1="52" x2="40" y2="52"/><line class="91ed7b8e-6989-4925-b814-8841246ef6d3" x1="42" y1="52" x2="44" y2="52"/><line class="91ed7b8e-6989-4925-b814-8841246ef6d3" x1="34" y1="56" x2="36" y2="56"/><line class="91ed7b8e-6989-4925-b814-8841246ef6d3" x1="38" y1="56" x2="40" y2="56"/><line class="91ed7b8e-6989-4925-b814-8841246ef6d3" x1="42" y1="56" x2="44" y2="56"/><line class="91ed7b8e-6989-4925-b814-8841246ef6d3" x1="34" y1="60" x2="36" y2="60"/><line class="91ed7b8e-6989-4925-b814-8841246ef6d3" x1="38" y1="60" x2="40" y2="60"/><line class="91ed7b8e-6989-4925-b814-8841246ef6d3" x1="42" y1="60" x2="44" y2="60"/><line class="91ed7b8e-6989-4925-b814-8841246ef6d3" x1="34" y1="64" x2="36" y2="64"/><line class="91ed7b8e-6989-4925-b814-8841246ef6d3" x1="38" y1="64" x2="40" y2="64"/><line class="91ed7b8e-6989-4925-b814-8841246ef6d3" x1="42" y1="64" x2="44" y2="64"/><line class="91ed7b8e-6989-4925-b814-8841246ef6d3" x1="34" y1="68" x2="36" y2="68"/><line class="91ed7b8e-6989-4925-b814-8841246ef6d3" x1="38" y1="68" x2="40" y2="68"/><line class="91ed7b8e-6989-4925-b814-8841246ef6d3" x1="42" y1="68" x2="44" y2="68"/><rect class="91ed7b8e-6989-4925-b814-8841246ef6d3" x="60" y="68" width="8" height="8"/><rect class="91ed7b8e-6989-4925-b814-8841246ef6d3" x="54" y="36" width="4" height="4"/><rect class="91ed7b8e-6989-4925-b814-8841246ef6d3" x="62" y="36" width="4" height="4"/><rect class="91ed7b8e-6989-4925-b814-8841246ef6d3" x="70" y="36" width="4" height="4"/><rect class="91ed7b8e-6989-4925-b814-8841246ef6d3" x="54" y="44" width="4" height="4"/><rect class="91ed7b8e-6989-4925-b814-8841246ef6d3" x="62" y="44" width="4" height="4"/><rect class="91ed7b8e-6989-4925-b814-8841246ef6d3" x="70" y="44" width="4" height="4"/><rect class="91ed7b8e-6989-4925-b814-8841246ef6d3" x="54" y="52" width="4" height="4"/><rect class="91ed7b8e-6989-4925-b814-8841246ef6d3" x="62" y="52" width="4" height="4"/><rect class="91ed7b8e-6989-4925-b814-8841246ef6d3" x="70" y="52" width="4" height="4"/><rect class="91ed7b8e-6989-4925-b814-8841246ef6d3" x="54" y="60" width="4" height="4"/><rect class="91ed7b8e-6989-4925-b814-8841246ef6d3" x="62" y="60" width="4" height="4"/><rect class="91ed7b8e-6989-4925-b814-8841246ef6d3" x="70" y="60" width="4" height="4"/><line class="91ed7b8e-6989-4925-b814-8841246ef6d3" x1="53" y1="68" x2="57" y2="68"/><line class="91ed7b8e-6989-4925-b814-8841246ef6d3" x1="71" y1="68" x2="75" y2="68"/></g></g></svg>