<svg xmlns="http://www.w3.org/2000/svg" viewBox="0 0 110 110"><defs><style>.efc4aa57-428d-4b6c-8f80-d2edea4e3915{fill:#fbb03b;}.a00298fa-8c9c-4b57-8bcf-4f78e7c9dfc5{fill:#f6f6fd;}.\30 52996d3-453c-4276-bee0-8da304ac086a{fill:#fff;}.\35 04fefe2-8ed2-48ff-9ccc-8e0ea3edcc0b{fill:#67dde0;}.\38 db7564d-ce53-4122-bf31-1e7c3e4d3c38{fill:#ffb957;}.\39 b85297f-53f1-4d19-bb88-ea51e7349d75{fill:#f28c13;}.c3cdf383-7126-45e2-8af9-bb225f3afbe0{fill:none;stroke:#4d5152;stroke-miterlimit:10;stroke-width:2px;}</style></defs><title>icon-progress</title><g id="6d0d4573-7e5b-48b6-9590-9133e522b37e" data-name="Layer 2"><g id="77da595c-bbe8-4be1-bda3-2e71eb8580a0" data-name="Layer 1"><circle class="efc4aa57-428d-4b6c-8f80-d2edea4e3915" cx="55" cy="55" r="55"/><circle class="a00298fa-8c9c-4b57-8bcf-4f78e7c9dfc5" cx="55" cy="55" r="55"/><path class="052996d3-453c-4276-bee0-8da304ac086a" d="M39,82H71V77c0-16-13-21-13-21V54s13-5,13-21V28H39v5c0,16,13,21,13,21v2S39,61,39,77Z"/><rect class="504fefe2-8ed2-48ff-9ccc-8e0ea3edcc0b" x="36" y="24" width="38" height="4"/><rect class="504fefe2-8ed2-48ff-9ccc-8e0ea3edcc0b" x="36" y="82" width="38" height="4"/><path class="8db7564d-ce53-4122-bf31-1e7c3e4d3c38" d="M39,82H71S69,69,55,69,39,82,39,82Z"/><path class="9b85297f-53f1-4d19-bb88-ea51e7349d75" d="M47,82H71S69,69,55,69C50,69,47,82,47,82Z"/><rect class="c3cdf383-7126-45e2-8af9-bb225f3afbe0" x="36" y="24" width="38" height="4"/><rect class="c3cdf383-7126-45e2-8af9-bb225f3afbe0" x="36" y="82" width="38" height="4"/><path class="8db7564d-ce53-4122-bf31-1e7c3e4d3c38" d="M40,41c3.65,8.18,12,14,12,14h1s-4-9-4-14Z"/><path class="9b85297f-53f1-4d19-bb88-ea51e7349d75" d="M70,41H49c0,5,4,14,4,14h5S66.33,49.18,70,41Z"/><path class="c3cdf383-7126-45e2-8af9-bb225f3afbe0" d="M71,82V77c0-16-13-21-13-21V54s13-5,13-21V28"/><path class="c3cdf383-7126-45e2-8af9-bb225f3afbe0" d="M39,28v5c0,16,13,21,13,21v2S39,61,39,77v5"/><rect class="9b85297f-53f1-4d19-bb88-ea51e7349d75" x="54" y="57" width="2" height="2"/><rect class="9b85297f-53f1-4d19-bb88-ea51e7349d75" x="54" y="61" width="2" height="2"/><rect class="9b85297f-53f1-4d19-bb88-ea51e7349d75" x="54" y="65" width="2" height="2"/></g></g></svg>