<svg xmlns="http://www.w3.org/2000/svg" viewBox="0 0 110 110"><defs><style>.df7e854a-3a8d-4232-9528-a791c712a7d5{fill:#f6f6fd;}.\31 4b67e55-0fa7-4a5f-a418-769d0545cae2{fill:#fff;}.\38 0f87d9a-fa54-454a-a587-111dfef15735{fill:none;stroke:#4d5152;stroke-miterlimit:10;stroke-width:2px;}.\35 7c3d951-1a2c-446e-9eda-bd6196551677{fill:#ffb957;}</style></defs><title>icon-tasks</title><g id="0806c73a-8838-44dd-9959-019322113b8c" data-name="Layer 2"><g id="7fd0680a-1970-48ba-bcf7-6265da16c3fa" data-name="Layer 1"><circle class="df7e854a-3a8d-4232-9528-a791c712a7d5" cx="55" cy="55" r="55"/><polygon class="14b67e55-0fa7-4a5f-a418-769d0545cae2" points="77 84 33 84 33 26 69 26 77 34 77 84"/><polyline class="80f87d9a-fa54-454a-a587-111dfef15735" points="77 46 77 84 39 84"/><polyline class="80f87d9a-fa54-454a-a587-111dfef15735" points="69 26 69 34 77 34"/><polyline class="80f87d9a-fa54-454a-a587-111dfef15735" points="39 84 33 84 33 26 69 26 77 34 77 49.1"/><line class="80f87d9a-fa54-454a-a587-111dfef15735" x1="45.18" y1="45.55" x2="71.18" y2="45.55"/><line class="80f87d9a-fa54-454a-a587-111dfef15735" x1="45.18" y1="62.05" x2="67.05" y2="62.05"/><line class="80f87d9a-fa54-454a-a587-111dfef15735" x1="45.18" y1="67.55" x2="61.72" y2="67.55"/><line class="80f87d9a-fa54-454a-a587-111dfef15735" x1="45.18" y1="51.05" x2="71.18" y2="51.05"/><line class="80f87d9a-fa54-454a-a587-111dfef15735" x1="45.18" y1="56.55" x2="57.18" y2="56.55"/><circle class="57c3d951-1a2c-446e-9eda-bd6196551677" cx="40.52" cy="45.55" r="1.7"/><circle class="57c3d951-1a2c-446e-9eda-bd6196551677" cx="40.52" cy="51.05" r="1.7"/><circle class="57c3d951-1a2c-446e-9eda-bd6196551677" cx="40.52" cy="56.55" r="1.7"/><circle class="57c3d951-1a2c-446e-9eda-bd6196551677" cx="40.52" cy="62.05" r="1.7"/><circle class="57c3d951-1a2c-446e-9eda-bd6196551677" cx="40.52" cy="67.55" r="1.7"/></g></g></svg>