<svg xmlns="http://www.w3.org/2000/svg" viewBox="0 0 110 110"><defs><style>.c7ba2601-8cc4-4225-8202-cf885da47379{fill:#fbb03b;}.\34 a9bef18-7c68-41ec-bd61-9ee2ae8e4199{fill:#f6f6fd;}.\38 5d83f35-e379-442e-afb6-89df9cfd5cb4{fill:#fff;}.\33 29cf07a-4d9d-4f2a-9123-10284adb9a39{fill:#67dde0;}.f29838d4-feb8-47c6-845a-14c5fc8e7c2e{fill:none;stroke:#4d5152;stroke-miterlimit:10;stroke-width:2px;}.c1080d65-8703-4278-ac52-6be7ba1ef7d7{fill:#ffb957;}.\30 3291f4c-b632-457d-9897-e0c7490a0551{fill:#f28c13;}</style></defs><title>icon-start-progress</title><g id="06d69c48-6cd7-441e-8437-7fd2fce573ff" data-name="Layer 2"><g id="22748877-4ec5-4058-8879-0e31dba79634" data-name="Layer 1"><circle class="c7ba2601-8cc4-4225-8202-cf885da47379" cx="55" cy="55" r="55"/><circle class="4a9bef18-7c68-41ec-bd61-9ee2ae8e4199" cx="55" cy="55" r="55"/><path class="85d83f35-e379-442e-afb6-89df9cfd5cb4" d="M39,82H71V77c0-16-13-21-13-21V54s13-5,13-21V28H39v5c0,16,13,21,13,21v2S39,61,39,77Z"/><rect class="329cf07a-4d9d-4f2a-9123-10284adb9a39" x="36" y="24" width="38" height="4"/><rect class="329cf07a-4d9d-4f2a-9123-10284adb9a39" x="36" y="82" width="38" height="4"/><rect class="f29838d4-feb8-47c6-845a-14c5fc8e7c2e" x="36" y="24" width="38" height="4"/><rect class="f29838d4-feb8-47c6-845a-14c5fc8e7c2e" x="36" y="82" width="38" height="4"/><path class="c1080d65-8703-4278-ac52-6be7ba1ef7d7" d="M40,32.27C37.09,43.89,52,55,52,55h1s-4-14.61-4-22.73Z"/><path class="03291f4c-b632-457d-9897-e0c7490a0551" d="M71,32.27H49C49,40.39,53,55,53,55h5S72.59,44.74,71,32.27Z"/><path class="f29838d4-feb8-47c6-845a-14c5fc8e7c2e" d="M71,82V77c0-16-13-21-13-21V54s13-5,13-21V28"/><path class="f29838d4-feb8-47c6-845a-14c5fc8e7c2e" d="M39,28v5c0,16,13,21,13,21v2S39,61,39,77v5"/><rect class="03291f4c-b632-457d-9897-e0c7490a0551" x="54" y="57" width="2" height="2"/><rect class="03291f4c-b632-457d-9897-e0c7490a0551" x="54" y="61" width="2" height="2"/><rect class="03291f4c-b632-457d-9897-e0c7490a0551" x="54" y="65" width="2" height="2"/></g></g></svg>