<svg xmlns="http://www.w3.org/2000/svg" viewBox="0 0 110 110"><defs><style>.\31 e150c16-ea29-4de5-b153-7ed9471586ba{fill:#fbb03b;}.\37 0e260ec-3397-4d57-8977-d4bc71b4aa93{fill:#f6f6fd;}.\30 2a01cc7-bafc-4504-bc71-17de6cbd4d1c{fill:#fff;}.f5ca439b-53a0-4ed1-9723-a0e4f7388494{fill:#67dde0;}.\37 e930035-76ab-48cd-a417-7e4c9c091a70{fill:#ffb957;}.\39 56d3c3f-d270-47e1-8029-064afaac0eb4{fill:#f28c13;}.acda9c10-de01-487d-9160-02697ef10b8c{fill:none;stroke:#4d5152;stroke-miterlimit:10;stroke-width:2px;}</style></defs><title>icon-complete-progress</title><g id="1a92b4e1-e240-4bb1-bbe1-8bac78aa1cd9" data-name="Layer 2"><g id="02647ca9-9def-4e8d-b934-e96fed0f5f8b" data-name="Layer 1"><circle class="1e150c16-ea29-4de5-b153-7ed9471586ba" cx="55" cy="55" r="55"/><circle class="70e260ec-3397-4d57-8977-d4bc71b4aa93" cx="55" cy="55" r="55"/><path class="02a01cc7-bafc-4504-bc71-17de6cbd4d1c" d="M39,82H71V77c0-16-13-21-13-21V54s13-5,13-21V28H39v5c0,16,13,21,13,21v2S39,61,39,77Z"/><rect class="f5ca439b-53a0-4ed1-9723-a0e4f7388494" x="36" y="24" width="38" height="4"/><rect class="f5ca439b-53a0-4ed1-9723-a0e4f7388494" x="36" y="82" width="38" height="4"/><path class="7e930035-76ab-48cd-a417-7e4c9c091a70" d="M38.38,82H71.56S69.49,61,55,61C38.38,61,38.38,82,38.38,82Z"/><path class="956d3c3f-d270-47e1-8029-064afaac0eb4" d="M46.67,82H71.56s0-21-16.59-21C49.79,61,46.67,82,46.67,82Z"/><rect class="acda9c10-de01-487d-9160-02697ef10b8c" x="36" y="24" width="38" height="4"/><rect class="acda9c10-de01-487d-9160-02697ef10b8c" x="36" y="82" width="38" height="4"/><path class="acda9c10-de01-487d-9160-02697ef10b8c" d="M71,82V77c0-16-13-21-13-21V54s13-5,13-21V28"/><path class="acda9c10-de01-487d-9160-02697ef10b8c" d="M39,28v5c0,16,13,21,13,21v2S39,61,39,77v5"/></g></g></svg>