<svg xmlns="http://www.w3.org/2000/svg" viewBox="0 0 60.75 53.81"><defs><style>.a{fill:#ef7ead;}.b{fill:#cfd7e4;}</style></defs><title>meter-eight-icon</title><path d="M14053.21,10299a1,1,0,0,1-.76,1.1,1.08,1.08,0,0,1,1,1.22v0.13c0,1.06-.55,1.53-1.86,1.53h-0.89c-1.35,0-1.92-.47-1.94-1.53v-0.13a1.08,1.08,0,0,1,1-1.21,1,1,0,0,1-.8-1.1v-0.35c0-.94.55-1.35,1.79-1.35h0.73c1.21,0,1.72.41,1.72,1.35v0.35Zm-1.09,2c0-.38-0.2-0.55-0.67-0.55h-0.69c-0.49,0-.69.17-0.69,0.55v0.33a0.56,0.56,0,0,0,.69.6h0.69a0.55,0.55,0,0,0,.67-0.6v-0.33Zm-2-1.95c0,0.38.2,0.5,0.66,0.5h0.59c0.46,0,.65-0.12.65-0.5v-0.32c0-.39-0.19-0.54-0.64-0.54h-0.6c-0.47,0-.66.16-0.66,0.54v0.32Z" transform="translate(-14020.73 -10269.68)"/><path class="a" d="M14041.48,10292.87a0.87,0.87,0,0,1-.46-0.13l-14.47-9.09a0.88,0.88,0,0,1-.25-1.25,30.48,30.48,0,0,1,7.29-7.26,0.88,0.88,0,0,1,.5-0.16l0.19,0a0.88,0.88,0,0,1,.57.42l8.48,15a0.88,0.88,0,0,1-.16,1.07,11.71,11.71,0,0,0-1,1.06A0.87,0.87,0,0,1,14041.48,10292.87Z" transform="translate(-14020.73 -10269.68)"/><path class="a" d="M14032.12,10323.49a0.88,0.88,0,0,1-.56-0.21,30.54,30.54,0,0,1-6.13-7,0.88,0.88,0,0,1,.35-1.26l15.51-7.6a0.88,0.88,0,0,1,1,.21,11.78,11.78,0,0,0,1.29,1.26,0.88,0.88,0,0,1,.11,1.23l-10.94,13a0.88,0.88,0,0,1-.59.31h-0.08Z" transform="translate(-14020.73 -10269.68)"/><path class="b" d="M14070.08,10323.49H14070a0.88,0.88,0,0,1-.59-0.31l-10.94-13a0.88,0.88,0,0,1,.11-1.23,11.82,11.82,0,0,0,1.28-1.25,0.88,0.88,0,0,1,1-.21l15.52,7.6a0.88,0.88,0,0,1,.35,1.26,30.54,30.54,0,0,1-6.12,7A0.88,0.88,0,0,1,14070.08,10323.49Z" transform="translate(-14020.73 -10269.68)"/><path class="b" d="M14078.31,10312.37a0.87,0.87,0,0,1-.39-0.09l-15.34-7.52a0.88,0.88,0,0,1-.44-1.06,11.56,11.56,0,0,0,.36-1.31,0.88,0.88,0,0,1,.8-0.69l17.25-1.11h0.06a0.88,0.88,0,0,1,.87.92,30.2,30.2,0,0,1-2.36,10.33A0.88,0.88,0,0,1,14078.31,10312.37Z" transform="translate(-14020.73 -10269.68)"/><path class="a" d="M14038.81,10298.53h-0.06l-17-1.09a0.88,0.88,0,0,1-.81-1,30.17,30.17,0,0,1,2.83-9.72,0.88,0.88,0,0,1,1.25-.36l14.63,9.18a0.88,0.88,0,0,1,.37,1,11.68,11.68,0,0,0-.31,1.25A0.88,0.88,0,0,1,14038.81,10298.53Z" transform="translate(-14020.73 -10269.68)"/><path class="a" d="M14055.43,10289.13a0.87,0.87,0,0,1-.3-0.05,11.6,11.6,0,0,0-1.78-.5,0.88,0.88,0,0,1-.71-0.86v-17.16a0.88,0.88,0,0,1,.88-0.87h0.07a30.16,30.16,0,0,1,10.63,2.87,0.88,0.88,0,0,1,.38,1.22l-8.42,14.9A0.88,0.88,0,0,1,14055.43,10289.13Z" transform="translate(-14020.73 -10269.68)"/><path class="a" d="M14060.7,10292.85a0.87,0.87,0,0,1-.67-0.31,11.75,11.75,0,0,0-1-1.07,0.88,0.88,0,0,1-.17-1.07l8.48-15a0.87,0.87,0,0,1,.57-0.42l0.19,0a0.88,0.88,0,0,1,.5.16,30.48,30.48,0,0,1,7.3,7.27,0.88,0.88,0,0,1-.25,1.25l-14.48,9.09A0.87,0.87,0,0,1,14060.7,10292.85Z" transform="translate(-14020.73 -10269.68)"/><path class="a" d="M14023.88,10312.35a0.88,0.88,0,0,1-.81-0.53,30.19,30.19,0,0,1-2.35-10.31,0.88,0.88,0,0,1,.87-0.92h0.06l17.25,1.11a0.88,0.88,0,0,1,.8.69,11.54,11.54,0,0,0,.35,1.29,0.88,0.88,0,0,1-.45,1.06l-15.35,7.52A0.87,0.87,0,0,1,14023.88,10312.35Z" transform="translate(-14020.73 -10269.68)"/><path class="a" d="M14063.39,10298.53a0.88,0.88,0,0,1-.86-0.71,11.69,11.69,0,0,0-.31-1.27,0.88,0.88,0,0,1,.37-1l14.63-9.18a0.88,0.88,0,0,1,1.25.36,30.17,30.17,0,0,1,2.84,9.74,0.88,0.88,0,0,1-.81,1l-17,1.09h-0.06Z" transform="translate(-14020.73 -10269.68)"/><path class="a" d="M14046.73,10289.14a0.88,0.88,0,0,1-.76-0.44l-8.42-14.9a0.88,0.88,0,0,1,.38-1.22,30.16,30.16,0,0,1,10.63-2.89h0.07a0.88,0.88,0,0,1,.88.88v17.17a0.88,0.88,0,0,1-.7.86,11.59,11.59,0,0,0-1.75.5A0.87,0.87,0,0,1,14046.73,10289.14Z" transform="translate(-14020.73 -10269.68)"/></svg>