<svg xmlns="http://www.w3.org/2000/svg" viewBox="0 0 60.75 53.81"><defs><style>.a{fill:#ef7ead;}.b{fill:#cfd7e4;}</style></defs><title>meter-six-icon</title><path d="M13893.48,10299.46c1.09,0,1.51.36,1.51,1.33v0.71c0,1-.64,1.47-1.87,1.47h-0.5a1.83,1.83,0,0,1-2.12-2v-1.52a1.91,1.91,0,0,1,2.18-2.12,8.66,8.66,0,0,1,2,.25v1.32h-1.1l-0.15-.4a3.24,3.24,0,0,0-.8-0.09,0.8,0.8,0,0,0-.87.94v0.57a3.09,3.09,0,0,1,1.32-.42h0.35Zm-1.66,1.67a0.7,0.7,0,0,0,.84.76h0.45a0.53,0.53,0,0,0,.65-0.58V10301a0.5,0.5,0,0,0-.59-0.58h-0.25a2.21,2.21,0,0,0-1.09.28v0.46Z" transform="translate(-13862.32 -10269.68)"/><path class="a" d="M13883.07,10292.87a0.87,0.87,0,0,1-.46-0.13l-14.47-9.09a0.88,0.88,0,0,1-.25-1.25,30.48,30.48,0,0,1,7.29-7.26,0.88,0.88,0,0,1,.5-0.16l0.19,0a0.88,0.88,0,0,1,.57.42l8.48,15a0.88,0.88,0,0,1-.16,1.07,11.71,11.71,0,0,0-1,1.06A0.87,0.87,0,0,1,13883.07,10292.87Z" transform="translate(-13862.32 -10269.68)"/><path class="a" d="M13873.71,10323.49a0.88,0.88,0,0,1-.56-0.21,30.54,30.54,0,0,1-6.13-7,0.88,0.88,0,0,1,.35-1.26l15.51-7.6a0.88,0.88,0,0,1,1,.21,11.78,11.78,0,0,0,1.29,1.26,0.88,0.88,0,0,1,.11,1.23l-10.94,13a0.88,0.88,0,0,1-.59.31h-0.08Z" transform="translate(-13862.32 -10269.68)"/><path class="b" d="M13911.67,10323.49h-0.08a0.88,0.88,0,0,1-.59-0.31l-10.94-13a0.88,0.88,0,0,1,.11-1.23,11.82,11.82,0,0,0,1.28-1.25,0.88,0.88,0,0,1,1-.21l15.52,7.6a0.88,0.88,0,0,1,.35,1.26,30.54,30.54,0,0,1-6.12,7A0.88,0.88,0,0,1,13911.67,10323.49Z" transform="translate(-13862.32 -10269.68)"/><path class="b" d="M13919.9,10312.37a0.87,0.87,0,0,1-.39-0.09l-15.34-7.52a0.88,0.88,0,0,1-.44-1.06,11.56,11.56,0,0,0,.36-1.31,0.88,0.88,0,0,1,.8-0.69l17.25-1.11h0.06a0.88,0.88,0,0,1,.87.92,30.2,30.2,0,0,1-2.36,10.33A0.88,0.88,0,0,1,13919.9,10312.37Z" transform="translate(-13862.32 -10269.68)"/><path class="a" d="M13880.4,10298.53h-0.06l-17-1.09a0.88,0.88,0,0,1-.81-1,30.17,30.17,0,0,1,2.83-9.72,0.88,0.88,0,0,1,1.25-.36l14.63,9.18a0.88,0.88,0,0,1,.37,1,11.68,11.68,0,0,0-.31,1.25A0.88,0.88,0,0,1,13880.4,10298.53Z" transform="translate(-13862.32 -10269.68)"/><path class="a" d="M13897,10289.13a0.87,0.87,0,0,1-.3-0.05,11.6,11.6,0,0,0-1.78-.5,0.88,0.88,0,0,1-.71-0.86v-17.16a0.88,0.88,0,0,1,.88-0.87h0.07a30.16,30.16,0,0,1,10.63,2.87,0.88,0.88,0,0,1,.38,1.22l-8.42,14.9A0.88,0.88,0,0,1,13897,10289.13Z" transform="translate(-13862.32 -10269.68)"/><path class="b" d="M13902.3,10292.85a0.87,0.87,0,0,1-.67-0.31,11.76,11.76,0,0,0-1-1.07,0.88,0.88,0,0,1-.17-1.07l8.48-15a0.87,0.87,0,0,1,.57-0.42l0.19,0a0.88,0.88,0,0,1,.5.16,30.48,30.48,0,0,1,7.3,7.27,0.88,0.88,0,0,1-.25,1.25l-14.48,9.09A0.87,0.87,0,0,1,13902.3,10292.85Z" transform="translate(-13862.32 -10269.68)"/><path class="a" d="M13865.47,10312.35a0.88,0.88,0,0,1-.81-0.53,30.19,30.19,0,0,1-2.35-10.31,0.88,0.88,0,0,1,.87-0.92h0.06l17.25,1.11a0.88,0.88,0,0,1,.8.69,11.54,11.54,0,0,0,.35,1.29,0.88,0.88,0,0,1-.45,1.06l-15.35,7.52A0.87,0.87,0,0,1,13865.47,10312.35Z" transform="translate(-13862.32 -10269.68)"/><path class="b" d="M13905,10298.53a0.88,0.88,0,0,1-.86-0.71,11.69,11.69,0,0,0-.31-1.27,0.88,0.88,0,0,1,.37-1l14.63-9.18a0.88,0.88,0,0,1,1.25.36,30.17,30.17,0,0,1,2.84,9.74,0.88,0.88,0,0,1-.81,1l-17,1.09H13905Z" transform="translate(-13862.32 -10269.68)"/><path class="a" d="M13888.32,10289.14a0.88,0.88,0,0,1-.76-0.44l-8.42-14.9a0.88,0.88,0,0,1,.38-1.22,30.16,30.16,0,0,1,10.63-2.89h0.07a0.88,0.88,0,0,1,.88.88v17.17a0.88,0.88,0,0,1-.7.86,11.59,11.59,0,0,0-1.75.5A0.87,0.87,0,0,1,13888.32,10289.14Z" transform="translate(-13862.32 -10269.68)"/></svg>