<svg xmlns="http://www.w3.org/2000/svg" viewBox="0 0 110 110"><defs><style>.\34 0d7bca2-95a6-41ad-bcd5-38ee2ca12e65{fill:#f6f6fd;}.d92c52ac-f09e-4d81-9dbd-5f908db07498{fill:#fff;}.e35bb9c9-cb42-41ee-9c5d-485416baee94{fill:none;stroke:#4d5152;stroke-miterlimit:10;stroke-width:2px;}.f00a8f49-0f09-4faf-83d9-129ce781a5d0{fill:#acf0f2;}.be32a21e-546a-4810-b69d-6591e979e937{fill:#67dde0;}.\34 dc5a57a-aeca-4cdc-8881-8ef6818a4d60{fill:#ffb957;}</style></defs><title>icon-claim</title><g id="ff7d9b2c-6f6e-407a-b7b4-512edb0d0ff4" data-name="Layer 2"><g id="bf2d0d2a-8a6d-4490-b60a-1a960dd86bcc" data-name="Layer 1"><circle class="40d7bca2-95a6-41ad-bcd5-38ee2ca12e65" cx="55" cy="55" r="55"/><polygon class="d92c52ac-f09e-4d81-9dbd-5f908db07498" points="77 82 33 82 33 24 69 24 77 32 77 82"/><polyline class="e35bb9c9-cb42-41ee-9c5d-485416baee94" points="77 59 77 82 54 82"/><polyline class="e35bb9c9-cb42-41ee-9c5d-485416baee94" points="69 24 69 32 77 32"/><polyline class="e35bb9c9-cb42-41ee-9c5d-485416baee94" points="39 82 33 82 33 24 69 24 77 32 77 43"/><rect class="f00a8f49-0f09-4faf-83d9-129ce781a5d0" x="38" y="25" width="26" height="8"/><rect class="be32a21e-546a-4810-b69d-6591e979e937" x="45.05" y="73.46" width="9.9" height="7.07" transform="translate(-39.8 57.91) rotate(-45)"/><rect class="4dc5a57a-aeca-4cdc-8881-8ef6818a4d60" x="52.46" y="67.46" width="7.07" height="7.07" transform="translate(-33.8 60.39) rotate(-45)"/><rect class="d92c52ac-f09e-4d81-9dbd-5f908db07498" x="73.67" y="46.96" width="5.66" height="7.07" transform="translate(-13.3 68.88) rotate(-45)"/><polygon class="d92c52ac-f09e-4d81-9dbd-5f908db07498" points="49 83 41 86 44 78 49 83"/><rect class="be32a21e-546a-4810-b69d-6591e979e937" x="55.19" y="56.96" width="22.63" height="7.07" transform="translate(-23.3 64.74) rotate(-45)"/><line class="e35bb9c9-cb42-41ee-9c5d-485416baee94" x1="49" y1="83" x2="44" y2="78"/><polyline class="e35bb9c9-cb42-41ee-9c5d-485416baee94" points="59 57 69 47 77 55"/><polygon class="e35bb9c9-cb42-41ee-9c5d-485416baee94" points="44 78 76 46 81 51 49 83 41 86 44 78"/><line class="e35bb9c9-cb42-41ee-9c5d-485416baee94" x1="51" y1="71" x2="56" y2="76"/><line class="e35bb9c9-cb42-41ee-9c5d-485416baee94" x1="56" y1="66" x2="61" y2="71"/><line class="e35bb9c9-cb42-41ee-9c5d-485416baee94" x1="38" y1="36" x2="64" y2="36"/><line class="e35bb9c9-cb42-41ee-9c5d-485416baee94" x1="38" y1="40" x2="64" y2="40"/><line class="e35bb9c9-cb42-41ee-9c5d-485416baee94" x1="38" y1="44" x2="50" y2="44"/></g></g></svg>