<svg xmlns="http://www.w3.org/2000/svg" viewBox="0 0 110 110"><defs><style>.\30 e38ac9f-550b-46c7-ba7f-0519c55f2b46{fill:#f6f6fd;}.\33 16d415f-340b-4882-a585-7f627dce196a{fill:#fff;}.b08289c8-f590-4c47-9cf0-261e1066aa11{fill:none;stroke:#4d5152;stroke-miterlimit:10;stroke-width:2px;}.\39 76ae220-9ec0-4671-9ee1-2eed6247eaf3{fill:#67dde0;}.b8c9cf4b-40a7-4a0b-911b-ffb34906dfde{fill:#ffb957;}</style></defs><title>icon-techsavy</title><g id="83404ba9-4bd3-4c18-9afc-2c58a915e804" data-name="Layer 2"><g id="8102c0dd-c9d7-411a-8655-b0a97745ab45" data-name="Layer 1"><circle class="0e38ac9f-550b-46c7-ba7f-0519c55f2b46" cx="55" cy="55" r="55"/><rect class="316d415f-340b-4882-a585-7f627dce196a" x="24" y="36" width="62" height="30"/><polyline class="b08289c8-f590-4c47-9cf0-261e1066aa11" points="24 66 24 36 86 36 86 66"/><line class="b08289c8-f590-4c47-9cf0-261e1066aa11" x1="60" y1="66" x2="50" y2="66"/><rect class="976ae220-9ec0-4671-9ee1-2eed6247eaf3" x="28" y="40" width="6" height="6"/><rect class="976ae220-9ec0-4671-9ee1-2eed6247eaf3" x="36" y="40" width="6" height="6"/><rect class="976ae220-9ec0-4671-9ee1-2eed6247eaf3" x="44" y="40" width="6" height="6"/><rect class="976ae220-9ec0-4671-9ee1-2eed6247eaf3" x="52" y="40" width="6" height="6"/><rect class="976ae220-9ec0-4671-9ee1-2eed6247eaf3" x="60" y="40" width="6" height="6"/><rect class="976ae220-9ec0-4671-9ee1-2eed6247eaf3" x="68" y="40" width="6" height="6"/><rect class="976ae220-9ec0-4671-9ee1-2eed6247eaf3" x="76" y="40" width="6" height="6"/><rect class="976ae220-9ec0-4671-9ee1-2eed6247eaf3" x="28" y="48" width="6" height="6"/><rect class="976ae220-9ec0-4671-9ee1-2eed6247eaf3" x="36" y="48" width="6" height="6"/><rect class="976ae220-9ec0-4671-9ee1-2eed6247eaf3" x="44" y="48" width="6" height="6"/><rect class="976ae220-9ec0-4671-9ee1-2eed6247eaf3" x="52" y="48" width="6" height="6"/><rect class="976ae220-9ec0-4671-9ee1-2eed6247eaf3" x="60" y="48" width="6" height="6"/><rect class="976ae220-9ec0-4671-9ee1-2eed6247eaf3" x="68" y="48" width="6" height="6"/><rect class="976ae220-9ec0-4671-9ee1-2eed6247eaf3" x="76" y="48" width="6" height="6"/><rect class="976ae220-9ec0-4671-9ee1-2eed6247eaf3" x="28" y="56" width="6" height="6"/><rect class="976ae220-9ec0-4671-9ee1-2eed6247eaf3" x="36" y="56" width="6" height="6"/><rect class="976ae220-9ec0-4671-9ee1-2eed6247eaf3" x="44" y="56" width="22" height="6"/><rect class="976ae220-9ec0-4671-9ee1-2eed6247eaf3" x="68" y="56" width="6" height="6"/><rect class="976ae220-9ec0-4671-9ee1-2eed6247eaf3" x="76" y="56" width="6" height="6"/><path class="b08289c8-f590-4c47-9cf0-261e1066aa11" d="M55,35a3,3,0,0,1,3-3"/><line class="b08289c8-f590-4c47-9cf0-261e1066aa11" x1="58" y1="32" x2="61" y2="32"/><path class="b08289c8-f590-4c47-9cf0-261e1066aa11" d="M61,32a3,3,0,0,0,0-6"/><line class="b08289c8-f590-4c47-9cf0-261e1066aa11" x1="61" y1="26" x2="49" y2="26"/><path class="b08289c8-f590-4c47-9cf0-261e1066aa11" d="M49,26a3,3,0,0,1-3-3"/><path class="b8c9cf4b-40a7-4a0b-911b-ffb34906dfde" d="M78,87V85l3-10V64a2,2,0,0,0-4,0V62a2,2,0,0,0-4,0V60a2,2,0,0,0-4,0v2a2,2,0,0,0-4,0v7H63a2,2,0,0,0-2,2v4l2,4,3,4v4"/><line class="b8c9cf4b-40a7-4a0b-911b-ffb34906dfde" x1="69" y1="62" x2="69" y2="72"/><line class="b8c9cf4b-40a7-4a0b-911b-ffb34906dfde" x1="73" y1="62" x2="73" y2="72"/><line class="b8c9cf4b-40a7-4a0b-911b-ffb34906dfde" x1="77" y1="64" x2="77" y2="72"/><path class="b08289c8-f590-4c47-9cf0-261e1066aa11" d="M78,87V85l3-10V64a2,2,0,0,0-4,0V62a2,2,0,0,0-4,0V60a2,2,0,0,0-4,0v2a2,2,0,0,0-4,0V73"/><line class="b08289c8-f590-4c47-9cf0-261e1066aa11" x1="69" y1="62" x2="69" y2="70"/><line class="b08289c8-f590-4c47-9cf0-261e1066aa11" x1="73" y1="62" x2="73" y2="70"/><line class="b08289c8-f590-4c47-9cf0-261e1066aa11" x1="77" y1="64" x2="77" y2="70"/><path class="b08289c8-f590-4c47-9cf0-261e1066aa11" d="M65,69H63a2,2,0,0,0-2,2v4l2,4,3,4v4"/><path class="b8c9cf4b-40a7-4a0b-911b-ffb34906dfde" d="M32,87V85L29,75V64a2,2,0,0,1,4,0V62a2,2,0,0,1,4,0V60a2,2,0,0,1,4,0v2a2,2,0,0,1,4,0v7h2a2,2,0,0,1,2,2v4l-2,4-3,4v4"/><line class="b8c9cf4b-40a7-4a0b-911b-ffb34906dfde" x1="41" y1="62" x2="41" y2="72"/><line class="b8c9cf4b-40a7-4a0b-911b-ffb34906dfde" x1="37" y1="62" x2="37" y2="72"/><line class="b8c9cf4b-40a7-4a0b-911b-ffb34906dfde" x1="33" y1="64" x2="33" y2="72"/><path class="b08289c8-f590-4c47-9cf0-261e1066aa11" d="M32,87V85L29,75V64a2,2,0,0,1,4,0V62a2,2,0,0,1,4,0V60a2,2,0,0,1,4,0v2a2,2,0,0,1,4,0V73"/><line class="b08289c8-f590-4c47-9cf0-261e1066aa11" x1="41" y1="62" x2="41" y2="70"/><line class="b08289c8-f590-4c47-9cf0-261e1066aa11" x1="37" y1="62" x2="37" y2="70"/><line class="b08289c8-f590-4c47-9cf0-261e1066aa11" x1="33" y1="64" x2="33" y2="70"/><path class="b08289c8-f590-4c47-9cf0-261e1066aa11" d="M45,69h2a2,2,0,0,1,2,2v4l-2,4-3,4v4"/></g></g></svg>