<svg xmlns="http://www.w3.org/2000/svg" viewBox="0 0 110 110"><defs><style>.b930bac4-6ba8-442a-848a-5b872a73e2a3{fill:#f6f6fd;}.\32 d6c165e-3e30-4927-8833-4e0451d912e3{fill:#fff;}.\32 23b6074-f192-4e47-96b1-b057edf27703,.d5233e4d-6880-43bd-88e3-baa05e1f31c6{fill:none;stroke:#535859;stroke-width:2px;}.\32 23b6074-f192-4e47-96b1-b057edf27703{stroke-miterlimit:10;}.d5233e4d-6880-43bd-88e3-baa05e1f31c6{stroke-linejoin:round;}.ddc3b791-9438-4674-992d-730bde37c56d{fill:#f59d15;}</style></defs><title>icon-passive</title><g id="1fce15e8-ac2b-491e-b2c1-6caf5c51a967" data-name="Layer 2"><g id="d720dac4-cbc8-4770-b75d-c142cc3516b5" data-name="Layer 1"><circle class="b930bac4-6ba8-442a-848a-5b872a73e2a3" cx="55" cy="55" r="55"/><path class="2d6c165e-3e30-4927-8833-4e0451d912e3" d="M39,84.5v-8c0-10-8-18.4-8-30a21,21,0,0,1,42,0l6,15H73v9a6,6,0,0,1-6,6H61v8"/><line class="223b6074-f192-4e47-96b1-b057edf27703" x1="61" y1="76.5" x2="58" y2="76.5"/><path class="d5233e4d-6880-43bd-88e3-baa05e1f31c6" d="M39,84.5v-8c0-10-8-18.4-8-30a21,21,0,0,1,42,0l6,15H73v9a6,6,0,0,1-6,6H61v8"/><path class="ddc3b791-9438-4674-992d-730bde37c56d" d="M51,48.5H62v-6H45v16h2v-6A4,4,0,0,1,51,48.5Z"/><circle class="ddc3b791-9438-4674-992d-730bde37c56d" cx="62" cy="42.5" r="6"/><circle class="ddc3b791-9438-4674-992d-730bde37c56d" cx="44" cy="40.5" r="6"/><circle class="ddc3b791-9438-4674-992d-730bde37c56d" cx="53" cy="37.5" r="8"/><circle class="ddc3b791-9438-4674-992d-730bde37c56d" cx="40" cy="47.5" r="5"/><line class="d5233e4d-6880-43bd-88e3-baa05e1f31c6" x1="53" y1="41.5" x2="51" y2="41.5"/><line class="d5233e4d-6880-43bd-88e3-baa05e1f31c6" x1="57" y1="41.5" x2="55" y2="41.5"/><line class="d5233e4d-6880-43bd-88e3-baa05e1f31c6" x1="49" y1="41.5" x2="47" y2="41.5"/><path class="ddc3b791-9438-4674-992d-730bde37c56d" d="M40,48.5v4c3.31,0,5,2.69,5,6v26h2v-36Z"/><rect class="ddc3b791-9438-4674-992d-730bde37c56d" x="40" y="42.5" width="5" height="7"/></g></g></svg>