<svg xmlns="http://www.w3.org/2000/svg" viewBox="0 0 110 110"><defs><style>.\31 410fbd4-c330-4a72-9789-14b4a53fafa2{fill:#f6f6fd;}.b7dc8565-b7df-4e87-afd0-581d5ba34a68,.ef65f362-4c0f-4a5d-88e6-46fae3063a77{fill:#fce1da;}.eff4b5cf-a3e0-44b3-9d7e-f3d289623e18{fill:none;}.\34 5166a95-b558-4290-843b-57a5ac42d48f,.\34 6e6b417-17a5-44c2-92d6-dc64b06486a4,.b7dc8565-b7df-4e87-afd0-581d5ba34a68,.eff4b5cf-a3e0-44b3-9d7e-f3d289623e18{stroke:#535859;stroke-miterlimit:10;stroke-width:2px;}.\34 6e6b417-17a5-44c2-92d6-dc64b06486a4{fill:#9fbd89;}.\34 5166a95-b558-4290-843b-57a5ac42d48f{fill:#d5e9c6;}.\34 c04d980-9b08-4c1f-ac5e-3c2d2dddf79a{fill:#535859;}</style></defs><title>icon-money</title><g id="5725618d-b2b8-4c7b-95cf-1262a325a63e" data-name="Layer 2"><g id="edefb84f-2b4d-40c6-8246-76a05d43c41d" data-name="Layer 1"><circle class="1410fbd4-c330-4a72-9789-14b4a53fafa2" cx="55" cy="55" r="55"/><path class="ef65f362-4c0f-4a5d-88e6-46fae3063a77" d="M75.58,67.4V51.59a3.93,3.93,0,1,0-7.85,0v-19a3.93,3.93,0,1,0-7.85,0V28.76a3.93,3.93,0,0,0-7.85,0v3.82a3.93,3.93,0,1,0-7.85,0v5.78a3.93,3.93,0,0,0-7.85,0v23.7c0,2.16.27,8.42.27,8.42A17.83,17.83,0,0,0,54.1,85.16h3.82A17.82,17.82,0,0,0,75.69,67.4Z"/><path class="eff4b5cf-a3e0-44b3-9d7e-f3d289623e18" d="M40.26,66h0a3.94,3.94,0,0,1-3.93-3.93V38.37a3.94,3.94,0,0,1,3.93-3.93h0a3.94,3.94,0,0,1,3.93,3.93v23.7A3.94,3.94,0,0,1,40.26,66Z"/><path class="eff4b5cf-a3e0-44b3-9d7e-f3d289623e18" d="M48.11,60.21h0a3.94,3.94,0,0,1-3.93-3.93V32.58a3.94,3.94,0,0,1,3.93-3.93h0A3.94,3.94,0,0,1,52,32.58v23.7A3.94,3.94,0,0,1,48.11,60.21Z"/><path class="eff4b5cf-a3e0-44b3-9d7e-f3d289623e18" d="M56,56.39h0A3.94,3.94,0,0,1,52,52.47V28.76A3.94,3.94,0,0,1,56,24.84h0a3.94,3.94,0,0,1,3.93,3.93v23.7A3.94,3.94,0,0,1,56,56.39Z"/><path class="eff4b5cf-a3e0-44b3-9d7e-f3d289623e18" d="M63.81,60.21h0a3.94,3.94,0,0,1-3.93-3.93V32.58a3.94,3.94,0,0,1,3.93-3.93h0a3.94,3.94,0,0,1,3.93,3.93v23.7A3.94,3.94,0,0,1,63.81,60.21Z"/><rect class="46e6b417-17a5-44c2-92d6-dc64b06486a4" x="26.05" y="37.75" width="57.9" height="32.75" rx="1" ry="1"/><path class="45166a95-b558-4290-843b-57a5ac42d48f" d="M75,65.92a4.25,4.25,0,0,1,4.41-4.41V46.64A4.25,4.25,0,0,1,75,42.23H35a4.25,4.25,0,0,1-4.41,4.41V61.51A4.25,4.25,0,0,1,35,65.92Z"/><path class="4c04d980-9b08-4c1f-ac5e-3c2d2dddf79a" d="M56.39,53.19l-1.45-.32v-3a5.58,5.58,0,0,1,1.46.32l.17,1.58a.56.56,0,0,0,.56.5h1a.56.56,0,0,0,.56-.56V49a.56.56,0,0,0-.35-.52,11,11,0,0,0-3.18-.77V47a.56.56,0,0,0-.56-.56h-1a.56.56,0,0,0-.56.56v.69c-1.84.11-3.73.71-3.73,3.47v.24c0,1.85.67,2.68,2.58,3.18l1.39.32v3.65a5.28,5.28,0,0,1-1.56-.4l-.15-1.54A.56.56,0,0,0,51,56.1H49.94a.56.56,0,0,0-.56.56v2.6a.56.56,0,0,0,.33.51,9.62,9.62,0,0,0,3.31,1v.63a.56.56,0,0,0,.56.56h1a.56.56,0,0,0,.56-.56v-.58c2.74-.12,3.92-1.21,3.92-3.58v-.73C59.07,54.55,58.34,53.66,56.39,53.19Zm-1.45,2.08.37.08c1.17.28,1.29.52,1.29,1.34v.51c0,.91-.16,1.33-1.66,1.39Zm-2.22-2.9c-.77-.2-.89-.42-.89-1.06v-.2c0-.66.11-1.15,1.46-1.24v2.63Z"/><path class="b7dc8565-b7df-4e87-afd0-581d5ba34a68" d="M56.06,73.49c0-7.23,6.2-10.74,11.57-10.74h.1V51.59a3.94,3.94,0,0,1,3.93-3.93h0a3.94,3.94,0,0,1,3.93,3.93V67.4h.1A17.82,17.82,0,0,1,57.92,85.16H54.1A17.83,17.83,0,0,1,36.6,70.5H56.45"/></g></g></svg>