<svg xmlns="http://www.w3.org/2000/svg" viewBox="0 0 110 110"><defs><style>.\32 107e0b9-d01c-44f6-a5d5-6b719e107a6d{fill:#f6f6fd;}.\36 67a4820-2711-40dc-9adb-7cdff1a8d418{fill:none;stroke:#4d5152;stroke-miterlimit:10;}.\36 67a4820-2711-40dc-9adb-7cdff1a8d418,.\36 9b8987d-5eb5-4db3-910a-e9f58247dc68{stroke-width:2px;}.\36 9b8987d-5eb5-4db3-910a-e9f58247dc68{fill:#2d2a30;stroke:#c1c1c1;stroke-linecap:round;stroke-linejoin:round;}.\38 3c57f6b-fa92-4d4e-b996-3ccff43dbd3b{fill:#acf0f2;}</style></defs><title>icon-provider-steth</title><g id="08f8d7ea-311a-4a57-a8e0-72a37fdcb1af" data-name="Layer 2"><g id="525734fc-5026-45ac-ae50-2daea4d909bd" data-name="Layer 1"><circle class="2107e0b9-d01c-44f6-a5d5-6b719e107a6d" cx="55" cy="55" r="55"/><path class="667a4820-2711-40dc-9adb-7cdff1a8d418" d="M41.15,56.56s9.94,10.85,22.63,0"/><path class="667a4820-2711-40dc-9adb-7cdff1a8d418" d="M75.09,67.94v6.16A11.32,11.32,0,0,1,63.77,85.41h0A11.32,11.32,0,0,1,52.45,74.09V69.91"/><circle class="69b8987d-5eb5-4db3-910a-e9f58247dc68" cx="75.09" cy="67.94" r="4.07"/><path class="667a4820-2711-40dc-9adb-7cdff1a8d418" d="M62.1,30.45l7,7S63.49,69.91,52.47,69.91,35.78,37.5,35.78,37.5l6.75-6.75"/><path class="83c57f6b-fa92-4d4e-b996-3ccff43dbd3b" d="M61.59,25.49a1.73,1.73,0,0,0-1.27-.89l-.25,0a1.72,1.72,0,0,0-1.22.51l-2.19,2.22a1.72,1.72,0,0,0,.42,2.74s4.36,3.08,4.47,3.19l.05.34a.4.4,0,0,0,.68.22l3.13-3.16a.4.4,0,0,0-.23-.68l-.35,0C64.73,29.81,61.59,25.49,61.59,25.49Z"/><path class="83c57f6b-fa92-4d4e-b996-3ccff43dbd3b" d="M43.28,25.49a1.73,1.73,0,0,1,1.27-.89l.25,0A1.72,1.72,0,0,1,46,25.1l2.19,2.22a1.72,1.72,0,0,1-.42,2.74s-4.36,3.08-4.47,3.19l-.05.34a.4.4,0,0,1-.68.22l-3.13-3.16a.4.4,0,0,1,.23-.68l.35,0C40.15,29.81,43.28,25.49,43.28,25.49Z"/></g></g></svg>