<svg xmlns="http://www.w3.org/2000/svg" viewBox="0 0 110 110"><defs><style>.\34 8bd2b41-8ac6-4632-a433-248c33d35f36{fill:#f6f6fd;}.a54ce88b-2751-4cde-b641-8ec8e071092e{fill:#c69c6d;}.cb9ebc83-2a8b-4f6b-b87d-9080216b1a76{fill:none;}.\32 ad53d12-55e0-4cfc-8e46-aeb561cad055,.\39 5a6740a-a588-4f3a-b648-0646a660b3a2,.cb9ebc83-2a8b-4f6b-b87d-9080216b1a76{stroke:#4d5152;stroke-miterlimit:10;stroke-width:2px;}.\32 ad53d12-55e0-4cfc-8e46-aeb561cad055{fill:#fff;}.b553e5a1-4d53-412c-b976-6967fca255c9{fill:#4d5152;}.\39 5a6740a-a588-4f3a-b648-0646a660b3a2{fill:#acf0f2;}</style></defs><title>icon-claim-dental</title><g id="ed0e6f93-01a4-4ed6-a791-12b6a6a0c32d" data-name="Layer 2"><g id="6839908e-3a63-4bc0-b18b-69842e252414" data-name="Layer 1"><circle class="48bd2b41-8ac6-4632-a433-248c33d35f36" cx="55" cy="55" r="55"/><rect class="a54ce88b-2751-4cde-b641-8ec8e071092e" x="33.32" y="30.78" width="43.35" height="50.79"/><rect class="cb9ebc83-2a8b-4f6b-b87d-9080216b1a76" x="33.32" y="30.78" width="43.35" height="50.79"/><rect class="2ad53d12-55e0-4cfc-8e46-aeb561cad055" x="38.6" y="30.78" width="32.8" height="41.72"/><path class="2ad53d12-55e0-4cfc-8e46-aeb561cad055" d="M68,28.87h-8V27.37a4.94,4.94,0,1,0-9.88,0v1.49H42v3.82H68Z"/><circle class="b553e5a1-4d53-412c-b976-6967fca255c9" cx="55" cy="26.78" r="1.35"/><path class="95a6740a-a588-4f3a-b648-0646a660b3a2" d="M55,54.31c-3,0-1.5,6.69-2.41,6.69S50.1,59.6,49.4,56.84s-1-4.55-1-4.55c-1.68-2.29-3-6.16-.11-8.22a5.67,5.67,0,0,1,6.75.16h0a5.67,5.67,0,0,1,6.75-.16c2.85,2.05,1.57,5.93-.11,8.22,0,0-.37,1.91-1,4.55S58.33,61,57.41,61,58,54.31,55,54.31Z"/></g></g></svg>