<svg xmlns="http://www.w3.org/2000/svg" viewBox="0 0 110 110"><defs><style>.\34 fcf5f68-4526-409b-ba07-19f80f1d90d0{fill:#fbb03b;}.\38 cd2e5e9-5d7e-498a-b0a8-6904371d18ac{fill:#f6f6fd;}.\38 82ada7b-d14a-4ccf-bee6-6061c736169f{fill:#fff;}.ea7cb601-e116-4ac7-a2a3-ece728efc1e0{fill:#acf0f2;}.\38 f5ceed7-8ec4-4d56-8be4-667d5504f450{fill:none;stroke:#4d5152;stroke-miterlimit:10;stroke-width:2px;}</style></defs><title>icon-value</title><g id="5d03d727-73af-4795-88d2-b92249d851c2" data-name="Layer 2"><g id="e89a48ff-ed3a-408c-876c-e47d3cca8e08" data-name="Layer 1"><circle class="4fcf5f68-4526-409b-ba07-19f80f1d90d0" cx="55" cy="55" r="55"/><circle class="8cd2e5e9-5d7e-498a-b0a8-6904371d18ac" cx="55" cy="55" r="55"/><polygon class="882ada7b-d14a-4ccf-bee6-6061c736169f" points="55 82.5 24 44.5 33 33.5 77 33.5 86 44.5 55 82.5"/><polygon class="ea7cb601-e116-4ac7-a2a3-ece728efc1e0" points="44 44.5 33 33.5 55 33.5 44 44.5"/><polygon class="ea7cb601-e116-4ac7-a2a3-ece728efc1e0" points="66 44.5 55 33.5 77 33.5 66 44.5"/><polygon class="ea7cb601-e116-4ac7-a2a3-ece728efc1e0" points="55 82.5 24 44.5 44 44.5 55 82.5"/><polygon class="ea7cb601-e116-4ac7-a2a3-ece728efc1e0" points="55 82.5 86 44.5 66 44.5 55 82.5"/><polygon class="8f5ceed7-8ec4-4d56-8be4-667d5504f450" points="55 82.5 24 44.5 33 33.5 77 33.5 86 44.5 55 82.5"/><line class="8f5ceed7-8ec4-4d56-8be4-667d5504f450" x1="24" y1="44.5" x2="86" y2="44.5"/><line class="8f5ceed7-8ec4-4d56-8be4-667d5504f450" x1="77" y1="33.5" x2="66" y2="44.5"/><line class="8f5ceed7-8ec4-4d56-8be4-667d5504f450" x1="55" y1="33.5" x2="66" y2="44.5"/><line class="8f5ceed7-8ec4-4d56-8be4-667d5504f450" x1="55" y1="33.5" x2="44" y2="44.5"/><line class="8f5ceed7-8ec4-4d56-8be4-667d5504f450" x1="33" y1="33.5" x2="44" y2="44.5"/><line class="8f5ceed7-8ec4-4d56-8be4-667d5504f450" x1="44" y1="44.5" x2="55" y2="82.5"/><line class="8f5ceed7-8ec4-4d56-8be4-667d5504f450" x1="66" y1="44.5" x2="55" y2="82.5"/></g></g></svg>