<svg xmlns="http://www.w3.org/2000/svg" viewBox="0 0 110 110"><defs><style>.\32 63b9d89-cd93-43f7-9ab0-89f87a204f2c{fill:#f6f6fd;}.\30 a0f75cd-101d-4a69-9f94-79f9ed4bb233{fill:#c69c6d;}.\31 8767369-a4e4-4a46-ba97-0b6e04eb1aea,.\38 1729e70-3854-4554-ad0d-11adda5bde46{fill:none;}.\31 8767369-a4e4-4a46-ba97-0b6e04eb1aea,.c3a0ee3b-d494-4b92-8386-c2d9315cafd8,.cbc80e14-741e-4dd6-b4df-be09bb4e080b{stroke:#4d5152;stroke-miterlimit:10;stroke-width:2px;}.c3a0ee3b-d494-4b92-8386-c2d9315cafd8{fill:#fff;}.e1a26a50-1483-457f-8bc2-8ea42f53642d{fill:#4d5152;}.cbc80e14-741e-4dd6-b4df-be09bb4e080b{fill:#cc3232;}.ac11c463-be5d-4103-9e62-cdc40c39f930{stroke:#fff;stroke-linecap:round;stroke-linejoin:round;}</style></defs><title>icon-claim-drug</title><g id="9dcd7dec-ff12-469c-96f2-a4524001edc0" data-name="Layer 2"><g id="88015c32-b426-4339-a4a1-33a8b6acc03e" data-name="Layer 1"><circle class="263b9d89-cd93-43f7-9ab0-89f87a204f2c" cx="55" cy="55" r="55"/><rect class="0a0f75cd-101d-4a69-9f94-79f9ed4bb233" x="33.32" y="30.78" width="43.35" height="50.79"/><rect class="18767369-a4e4-4a46-ba97-0b6e04eb1aea" x="33.32" y="30.78" width="43.35" height="50.79"/><rect class="c3a0ee3b-d494-4b92-8386-c2d9315cafd8" x="38.6" y="30.78" width="32.8" height="41.72"/><path class="c3a0ee3b-d494-4b92-8386-c2d9315cafd8" d="M68,28.87h-8V27.37a4.94,4.94,0,1,0-9.88,0v1.49H42v3.82H68Z"/><circle class="e1a26a50-1483-457f-8bc2-8ea42f53642d" cx="55" cy="26.78" r="1.35"/><path class="c3a0ee3b-d494-4b92-8386-c2d9315cafd8" d="M64.91,49.45a4.24,4.24,0,0,0-6-6l-6,6,6,6Z"/><path class="cbc80e14-741e-4dd6-b4df-be09bb4e080b" d="M52.87,49.51l-6,6a4.24,4.24,0,0,0,6,6l6-6Z"/><line class="81729e70-3854-4554-ad0d-11adda5bde46" x1="55.87" y1="53.27" x2="55.87" y2="53.27"/><line class="ac11c463-be5d-4103-9e62-cdc40c39f930" x1="58.95" y1="52.15" x2="52.51" y2="58.58"/></g></g></svg>