<svg xmlns="http://www.w3.org/2000/svg" viewBox="0 0 110 110"><defs><style>.\33 9531833-734e-498f-b2b0-48fcac1910c2{fill:#f6f6fd;}.\32 b52d4a7-fdb4-4011-9a2b-6551dba3737b{fill:#fff;}.e02c9f44-a560-4530-bc22-b42231d9174a{fill:#acf0f2;}.\39 eeef1b7-690a-4983-a437-0b69c6118c13{fill:#67dde0;}.df802303-d0c7-4c01-8ae1-aa5c25ad7360{fill:none;stroke:#4d5152;stroke-miterlimit:10;stroke-width:2px;}</style></defs><title>icon-recommendation</title><g id="ec5a26b7-91f5-4396-bef7-21ba054432f3" data-name="Layer 2"><g id="8af8f178-6193-4349-96b3-dc38c26de8fe" data-name="Layer 1"><circle class="39531833-734e-498f-b2b0-48fcac1910c2" cx="55" cy="55" r="55"/><path class="2b52d4a7-fdb4-4011-9a2b-6551dba3737b" d="M43,50.33l5-3,9-9,4-8a3,3,0,1,1,6,0v5l-4,12H80a4,4,0,0,1,0,8H78a4,4,0,0,1,0,8H76a4,4,0,0,1,0,8H74a4,4,0,0,1,0,8H52l-4-2H43"/><rect class="e02c9f44-a560-4530-bc22-b42231d9174a" x="26" y="47.33" width="17" height="32"/><rect class="9eeef1b7-690a-4983-a437-0b69c6118c13" x="26" y="47.33" width="5" height="32"/><polyline class="df802303-d0c7-4c01-8ae1-aa5c25ad7360" points="26 47.33 43 47.33 43 79.33 26 79.33"/><path class="df802303-d0c7-4c01-8ae1-aa5c25ad7360" d="M50,49.33"/><line class="df802303-d0c7-4c01-8ae1-aa5c25ad7360" x1="37" y1="76.33" x2="37" y2="74.33"/><line class="df802303-d0c7-4c01-8ae1-aa5c25ad7360" x1="37" y1="72.33" x2="37" y2="70.33"/><line class="df802303-d0c7-4c01-8ae1-aa5c25ad7360" x1="78" y1="55.33" x2="72" y2="55.33"/><line class="df802303-d0c7-4c01-8ae1-aa5c25ad7360" x1="76" y1="63.33" x2="70" y2="63.33"/><line class="df802303-d0c7-4c01-8ae1-aa5c25ad7360" x1="74" y1="71.33" x2="68" y2="71.33"/><line class="df802303-d0c7-4c01-8ae1-aa5c25ad7360" x1="78" y1="55.33" x2="72" y2="55.33"/><line class="df802303-d0c7-4c01-8ae1-aa5c25ad7360" x1="76" y1="63.33" x2="70" y2="63.33"/><line class="df802303-d0c7-4c01-8ae1-aa5c25ad7360" x1="74" y1="71.33" x2="68" y2="71.33"/><path class="df802303-d0c7-4c01-8ae1-aa5c25ad7360" d="M43,50.33l5-3,9-9,4-8a3,3,0,1,1,6,0v5l-4,12H80a4,4,0,0,1,0,8H78a4,4,0,0,1,0,8H76a4,4,0,0,1,0,8H74a4,4,0,0,1,0,8H52l-4-2H43"/></g></g></svg>