<svg xmlns="http://www.w3.org/2000/svg" viewBox="0 0 70.28 62.21"><defs><style>.a{fill:#5692f0;}</style></defs><title>appeals</title><path class="a" d="M13961.86,10746.64l0.47,0.4a1.8,1.8,0,0,0,2.54-.2l14.55-17.09a1.8,1.8,0,0,0-.2-2.54l-0.47-.4a1.8,1.8,0,0,0-1.8-.3l-23.24-19.78a1.8,1.8,0,0,0-.59-1.72l-0.47-.4a1.8,1.8,0,0,0-2.54.2l-14.55,17.09a1.8,1.8,0,0,0,.2,2.54l0.47,0.4a1.8,1.8,0,0,0,1.8.3l8.6,7.32-24.15,27.05a1.6,1.6,0,0,0,.14,2.3l4.92,4.18a1.6,1.6,0,0,0,2.3-.23l22.84-28.17,8.6,7.32A1.8,1.8,0,0,0,13961.86,10746.64Zm-9.55-35.85a0.35,0.35,0,0,1,0-.49l0.4-.47a0.35,0.35,0,0,1,.49,0l20.77,17.68a0.35,0.35,0,0,1,0,.49l-0.4.47a0.35,0.35,0,0,1-.49,0Zm38,49.69H13955l-2,5.91h39.38Zm-32.17-1.81h29l-1.47-4.34h-26Z" transform="translate(-13922.06 -10704.17)"/></svg>