<svg xmlns="http://www.w3.org/2000/svg" viewBox="0 0 65.81 42.48"><defs><style>.a{fill:#4d6892;}</style></defs><title>announce-icon</title><path class="a" d="M14076.31,10469.18c3.13,0,6.09.07,8.9,0.2l4.71,10.9a3.94,3.94,0,0,0,7.23-3.13l-3.09-7.15a129.92,129.92,0,0,1,15.73,2.45v-25.55a153.58,153.58,0,0,1-33.48,3.28v19Zm52-16v-13s-3.78,2.63-12.52,5.19V10474c8.74,2.56,12.52,5.19,12.52,5.19v-13A6.49,6.49,0,0,0,14128.31,10453.22Zm-57.42-3a2.41,2.41,0,0,0-2.44,2.37v14.24a2.44,2.44,0,0,0,4.88,0v-14.24A2.41,2.41,0,0,0,14070.9,10450.19Z" transform="translate(-14068.46 -10440.18)"/></svg>