<svg xmlns="http://www.w3.org/2000/svg" viewBox="0 0 43.01 61.73"><defs><style>.a{fill:#4d6892;}</style></defs><title>claims-icon</title><path class="a" d="M14051.16,10362.35H14044V10361a4.45,4.45,0,1,0-8.89,0v1.34h-7.21v4.35h23.32v-4.35Zm-11.66-.2a1.45,1.45,0,1,1,1.45-1.45A1.45,1.45,0,0,1,14039.5,10362.15Zm14.66,0.14v7.42h-29.32v-7.42H14018v56h43v-56h-6.84Zm-20.65,17.41h4.15v-4.15h3.68v4.15h4.15v3.68h-4.15v4.15h-3.68v-4.15h-4.15v-3.68Zm14.72,25.85h-17.46v-2h17.46v2Zm0-5.38h-17.46v-2h17.46v2Zm0-5.38h-17.46v-2h17.46v2Z" transform="translate(-14018 -10356.56)"/></svg>