<svg xmlns="http://www.w3.org/2000/svg" viewBox="0 0 51.12 52.24"><defs><style>.a{fill:#5692f0;}</style></defs><title>send-eob-icon</title><path class="a" d="M13824.2,10841.4v-13h-16.27l-5.13-4.09-4.78,4.09h-14.84v12.72l-5.05,4.33v31.1h51.12v-31.15Zm-36.35,4.23v-12.53h31.68v16.71h-31.68v-4.17Zm30.9,22.53-15.06-12.3-15.06,12.3-1.48-1.81,16.54-13.5,16.54,13.5Zm-12.79-27.87-1.86-.42v-2.32a4,4,0,0,1,1.34.22l0.3,1.37h2.08v-3a14.22,14.22,0,0,0-3.15-.55v-1.2h-1.92v1.18c-2.46.11-3.51,1-3.51,3.06v0.16c0,1.81.53,2.36,2.36,2.88l1.73,0.41v2.62a4.14,4.14,0,0,1-1.51-.25l-0.28-1.31h-2.19v2.8a12.33,12.33,0,0,0,3.29.71v1h1.94v-1c2.49-.09,3.56-1,3.56-3.06v-0.66C13808.15,10841.37,13807.6,10840.69,13806,10840.29Zm-2.63-.61-0.57-.13a0.84,0.84,0,0,1-.79-0.91v-0.14c0-.72.36-0.94,1.34-0.94h0v2.13Zm2.17,4c0,0.79-.32,1-1.4,1v-2.43l0.09,0c1.07,0.27,1.31.46,1.31,1.1v0.3Z" transform="translate(-13778.14 -10824.34)"/></svg>