<svg xmlns="http://www.w3.org/2000/svg" viewBox="0 0 110 110"><defs><style>.\37 79d9729-9dc3-4c86-8ceb-e8d881457139{fill:#fbb03b;}.\33 c6a4ee5-2481-4c49-9d99-20b68b6bf4f6{fill:#f6f6fd;}.\35 6223218-6049-4ed7-b446-ed25763073c0{fill:#67dde0;}.bae0b0f4-3f6f-442d-9718-3cd88b585e96{fill:#fff;}.\32 6ce410d-29ec-4a39-8d7c-aeafee47273b{fill:#ffb957;}.\30 847f649-e81c-4644-89ac-8280297c643a{fill:#f28c13;}.\30 bb0522e-d017-42f0-b3c1-5793648cb69c{fill:none;stroke:#4d5152;stroke-miterlimit:10;stroke-width:2px;}</style></defs><title>icon-folder</title><g id="d7502263-f1b5-4ddd-9804-100755e38d02" data-name="Layer 2"><g id="cf865ee1-5e7d-4e6b-871e-718870ba7ce4" data-name="Layer 1"><circle class="779d9729-9dc3-4c86-8ceb-e8d881457139" cx="55" cy="55" r="55"/><circle class="3c6a4ee5-2481-4c49-9d99-20b68b6bf4f6" cx="55" cy="55" r="55"/><polygon class="56223218-6049-4ed7-b446-ed25763073c0" points="86 45 86 33 46 33 42 29 24 29 24 45 86 45"/><rect class="bae0b0f4-3f6f-442d-9718-3cd88b585e96" x="29" y="37" width="52" height="8"/><polygon class="26ce410d-29ec-4a39-8d7c-aeafee47273b" points="86 81 24 81 24 45 42 45 46 41 86 41 86 81"/><rect class="0847f649-e81c-4644-89ac-8280297c643a" x="24" y="76" width="62" height="5"/><polygon class="0bb0522e-d017-42f0-b3c1-5793648cb69c" points="86 81 24 81 24 45 42 45 46 41 86 41 86 81"/><polyline class="0bb0522e-d017-42f0-b3c1-5793648cb69c" points="86 41 86 33 46 33 42 29 24 29 24 45"/><line class="0bb0522e-d017-42f0-b3c1-5793648cb69c" x1="81" y1="47" x2="63" y2="47"/><line class="0bb0522e-d017-42f0-b3c1-5793648cb69c" x1="81" y1="51" x2="63" y2="51"/><line class="0bb0522e-d017-42f0-b3c1-5793648cb69c" x1="29" y1="51" x2="31" y2="51"/><line class="0bb0522e-d017-42f0-b3c1-5793648cb69c" x1="33" y1="51" x2="35" y2="51"/><line class="0bb0522e-d017-42f0-b3c1-5793648cb69c" x1="37" y1="51" x2="39" y2="51"/></g></g></svg>