<svg xmlns="http://www.w3.org/2000/svg" viewBox="0 0 110 110"><defs><style>.\32 990e723-9549-4657-be74-9bfc32edf622{fill:#fbb03b;}.\33 843557c-8b06-452c-9937-b9886f5e43ed{fill:#f6f6fd;}.\31 0e9ecb4-08dc-4654-afa3-ed212693cc34{fill:#ffb957;}.\31 11fbfde-a9e8-4d36-bc3d-18dfac0d9e67{fill:#f28c13;}.\35 49a4b9b-1446-46c3-9769-09f134991595{fill:#acefb1;}.\32 1600e1d-0157-4183-a000-ad0676010e15{fill:#67dde0;}.\34 28d9480-e8bd-4e89-af84-abf066ea003c{fill:#acf0f2;}.\36 8a295b7-184c-4054-bfed-23731cedfd8e{fill:#4d5152;}</style></defs><title>icon-sentiment</title><g id="021a6755-af86-4239-984d-09a851827b34" data-name="Layer 2"><g id="7217ffa4-1f42-4ac2-955b-351e009eeed7" data-name="Layer 1"><circle class="2990e723-9549-4657-be74-9bfc32edf622" cx="55" cy="55" r="55"/><circle class="3843557c-8b06-452c-9937-b9886f5e43ed" cx="55" cy="55" r="55"/><path class="10e9ecb4-08dc-4654-afa3-ed212693cc34" d="M46.41,48.52A.77.77,0,0,1,46,48.4L33.15,40.34a.78.78,0,0,1-.22-1.11,27,27,0,0,1,6.47-6.45.78.78,0,0,1,.45-.14l.17,0a.78.78,0,0,1,.51.38L48,46.35a.78.78,0,0,1-.15.95,10.39,10.39,0,0,0-.89.94A.78.78,0,0,1,46.41,48.52Z"/><path class="111fbfde-a9e8-4d36-bc3d-18dfac0d9e67" d="M38.1,75.7a.78.78,0,0,1-.5-.18,27.1,27.1,0,0,1-5.44-6.21.78.78,0,0,1,.31-1.11l13.77-6.74a.78.78,0,0,1,.93.19,10.45,10.45,0,0,0,1.14,1.12.78.78,0,0,1,.1,1.09L38.7,75.42a.78.78,0,0,1-.53.27Z"/><path class="549a4b9b-1446-46c3-9769-09f134991595" d="M71.79,75.7h-.07a.78.78,0,0,1-.53-.27L61.49,63.85a.78.78,0,0,1,.1-1.09,10.49,10.49,0,0,0,1.13-1.11.78.78,0,0,1,.93-.19L77.41,68.2a.78.78,0,0,1,.31,1.12,27.1,27.1,0,0,1-5.43,6.2A.78.78,0,0,1,71.79,75.7Z"/><path class="549a4b9b-1446-46c3-9769-09f134991595" d="M79.09,65.82a.78.78,0,0,1-.34-.08L65.13,59.08a.78.78,0,0,1-.39-.95A10.25,10.25,0,0,0,65.05,57a.78.78,0,0,1,.71-.62l15.31-1h0a.78.78,0,0,1,.78.81,26.8,26.8,0,0,1-2.09,9.17.78.78,0,0,1-.72.47Z"/><path class="10e9ecb4-08dc-4654-afa3-ed212693cc34" d="M44,53.54H44l-15.13-1a.78.78,0,0,1-.72-.86,26.77,26.77,0,0,1,2.51-8.62.78.78,0,0,1,1.11-.32l13,8.15a.78.78,0,0,1,.33.89,10.37,10.37,0,0,0-.27,1.11A.78.78,0,0,1,44,53.54Z"/><path class="21600e1d-0157-4183-a000-ad0676010e15" d="M58.79,45.2a.78.78,0,0,1-.27,0,10.3,10.3,0,0,0-1.58-.44.78.78,0,0,1-.63-.76V28.72a.78.78,0,0,1,.78-.78h.06A26.76,26.76,0,0,1,66.6,30.5a.78.78,0,0,1,.34,1.08L59.47,44.8A.78.78,0,0,1,58.79,45.2Z"/><path class="428d9480-e8bd-4e89-af84-abf066ea003c" d="M63.47,48.5a.78.78,0,0,1-.6-.28,10.44,10.44,0,0,0-.9-1,.78.78,0,0,1-.15-1L69.34,33a.78.78,0,0,1,.51-.38l.17,0a.78.78,0,0,1,.45.14,27,27,0,0,1,6.48,6.45.78.78,0,0,1-.22,1.11L63.88,48.38A.78.78,0,0,1,63.47,48.5Z"/><path class="111fbfde-a9e8-4d36-bc3d-18dfac0d9e67" d="M30.79,65.81a.78.78,0,0,1-.72-.47A26.8,26.8,0,0,1,28,56.19a.78.78,0,0,1,.78-.81h0l15.31,1a.78.78,0,0,1,.71.62,10.24,10.24,0,0,0,.31,1.14.78.78,0,0,1-.4.94L31.13,65.73A.78.78,0,0,1,30.79,65.81Z"/><path class="428d9480-e8bd-4e89-af84-abf066ea003c" d="M65.85,53.54a.78.78,0,0,1-.76-.63,10.37,10.37,0,0,0-.28-1.13.78.78,0,0,1,.33-.89l13-8.15a.78.78,0,0,1,1.11.32,26.77,26.77,0,0,1,2.52,8.64.78.78,0,0,1-.72.86l-15.12,1Z"/><path class="21600e1d-0157-4183-a000-ad0676010e15" d="M51.07,45.21a.78.78,0,0,1-.68-.39L42.92,31.59a.78.78,0,0,1,.34-1.08A26.76,26.76,0,0,1,52.69,28h.06a.78.78,0,0,1,.78.78V44a.78.78,0,0,1-.62.76,10.28,10.28,0,0,0-1.55.44A.78.78,0,0,1,51.07,45.21Z"/><path class="68a295b7-184c-4054-bfed-23731cedfd8e" d="M46.41,49.27a1.53,1.53,0,0,1-.81-.23L32.75,41a1.53,1.53,0,0,1-.43-2.19A27.8,27.8,0,0,1,39,32.17a1.53,1.53,0,0,1,2.22.5L48.7,46a1.53,1.53,0,0,1-.29,1.87,9.51,9.51,0,0,0-.83.87A1.53,1.53,0,0,1,46.41,49.27ZM39.86,33.41a25.74,25.74,0,0,0-6.31,6.26l12.86,8.1h0a11,11,0,0,1,1-1Z"/><path class="68a295b7-184c-4054-bfed-23731cedfd8e" d="M38.1,76.45a1.54,1.54,0,0,1-1-.36,27.89,27.89,0,0,1-5.6-6.39,1.53,1.53,0,0,1,.62-2.2l13.77-6.74a1.56,1.56,0,0,1,1.83.37,9.72,9.72,0,0,0,1.06,1A1.54,1.54,0,0,1,49,64.33L39.27,75.91a1.52,1.52,0,0,1-1,.54Zm8.5-14.32L32.81,68.87a25.67,25.67,0,0,0,5.28,6.07h0v0l9.72-11.58A14.67,14.67,0,0,1,46.6,62.13Z"/><path class="68a295b7-184c-4054-bfed-23731cedfd8e" d="M71.79,76.45h-.14a1.53,1.53,0,0,1-1-.54L60.91,64.33a1.53,1.53,0,0,1,.19-2.16,9.75,9.75,0,0,0,1-1A1.56,1.56,0,0,1,64,60.78l13.77,6.74a1.53,1.53,0,0,1,.62,2.2,27.84,27.84,0,0,1-5.58,6.37A1.54,1.54,0,0,1,71.79,76.45ZM63.31,62.14a13.61,13.61,0,0,1-1.24,1.19l9.72,11.61h0a26.34,26.34,0,0,0,5.28-6Z"/><path class="68a295b7-184c-4054-bfed-23731cedfd8e" d="M79.09,66.58a1.54,1.54,0,0,1-.67-.16L64.8,59.75A1.54,1.54,0,0,1,64,57.89a9.77,9.77,0,0,0,.29-1.08,1.54,1.54,0,0,1,1.4-1.22l15.41-1a1.53,1.53,0,0,1,1.53,1.61,27.55,27.55,0,0,1-2.15,9.42,1.53,1.53,0,0,1-1.41.93Zm2.05-10.43-15.33,1c-.11.44-.22.86-.36,1.26l13.64,6.7h0A25.94,25.94,0,0,0,81.14,56.15Z"/><path class="68a295b7-184c-4054-bfed-23731cedfd8e" d="M44,54.3h-.1l-15.12-1a1.53,1.53,0,0,1-1.43-1.71A27.52,27.52,0,0,1,30,42.76a1.53,1.53,0,0,1,1-.8,1.55,1.55,0,0,1,1.24.18l13,8.15A1.54,1.54,0,0,1,45.8,52a9.37,9.37,0,0,0-.25,1A1.53,1.53,0,0,1,44,54.3ZM31.36,43.41a25.44,25.44,0,0,0-2.47,8.39l15.14,1v0l0,0a11.1,11.1,0,0,1,.29-1.19Z"/><path class="68a295b7-184c-4054-bfed-23731cedfd8e" d="M58.79,46a1.54,1.54,0,0,1-.53-.09,9.56,9.56,0,0,0-1.46-.41,1.54,1.54,0,0,1-1.24-1.5V28.72a1.53,1.53,0,0,1,1.53-1.53h.12a27.55,27.55,0,0,1,9.71,2.62A1.53,1.53,0,0,1,67.6,32L60.12,45.18A1.53,1.53,0,0,1,58.79,46ZM57.1,28.7l0,15.25a13.38,13.38,0,0,1,1.71.49h0l7.48-13.23A25.56,25.56,0,0,0,57.1,28.7Z"/><path class="68a295b7-184c-4054-bfed-23731cedfd8e" d="M63.47,49.26a1.53,1.53,0,0,1-1.18-.55,9.74,9.74,0,0,0-.84-.88,1.53,1.53,0,0,1-.29-1.88l7.52-13.31a1.53,1.53,0,0,1,1-.74,1.57,1.57,0,0,1,1.22.24,27.82,27.82,0,0,1,6.66,6.63A1.53,1.53,0,0,1,77.13,41L64.28,49A1.53,1.53,0,0,1,63.47,49.26ZM70,33.38,62.48,46.69c.35.35.68.69,1,1h0l12.85-8.06A25.78,25.78,0,0,0,70,33.38Z"/><path class="68a295b7-184c-4054-bfed-23731cedfd8e" d="M30.79,66.56a1.52,1.52,0,0,1-.54-.1,1.54,1.54,0,0,1-.88-.84,27.56,27.56,0,0,1-2.14-9.41,1.54,1.54,0,0,1,.46-1.17,1.52,1.52,0,0,1,1.08-.44h.1l15.31,1a1.54,1.54,0,0,1,1.4,1.22,9.57,9.57,0,0,0,.29,1.06,1.54,1.54,0,0,1-.78,1.86L31.47,66.41A1.54,1.54,0,0,1,30.79,66.56Zm-2-10.44a25.54,25.54,0,0,0,2,8.91h0l13.62-6.67c-.12-.42-.23-.84-.32-1.25Z"/><path class="68a295b7-184c-4054-bfed-23731cedfd8e" d="M65.85,54.3a1.53,1.53,0,0,1-1.51-1.25,9.63,9.63,0,0,0-.26-1,1.53,1.53,0,0,1,.65-1.75l13-8.15a1.53,1.53,0,0,1,2.19.63,27.5,27.5,0,0,1,2.59,8.88,1.53,1.53,0,0,1-1.43,1.71Zm12.7-10.9-13,8.14c.11.41.21.81.29,1.23l0,0,15.13-1A25.49,25.49,0,0,0,78.55,43.4Z"/><path class="68a295b7-184c-4054-bfed-23731cedfd8e" d="M51.07,46a1.53,1.53,0,0,1-1.34-.78L42.26,32a1.53,1.53,0,0,1,.67-2.14,27.52,27.52,0,0,1,9.7-2.63h.13a1.53,1.53,0,0,1,1.53,1.54V44A1.54,1.54,0,0,1,53,45.46a9.58,9.58,0,0,0-1.44.41A1.52,1.52,0,0,1,51.07,46Zm1.7-17.24a25.55,25.55,0,0,0-9.19,2.47l7.48,13.26h0A11.11,11.11,0,0,1,52.74,44Z"/></g></g></svg>