<svg xmlns="http://www.w3.org/2000/svg" viewBox="0 0 110 110"><defs><style>.\35 25d330f-a957-470f-ba5c-2d9ffae36821{fill:#f6f6fd;}.dd54d990-8f3b-483d-884a-f2a62514c373{fill:#c69c6d;}.\30 0aeb009-141a-46f7-b174-221299d0ce85,.bb67adb7-bce8-47ea-a4f6-33b9687f37e8,.fb19d5f6-fdc3-43e1-91f6-378aebae0abb{fill:none;}.\30 0aeb009-141a-46f7-b174-221299d0ce85,.\39 58c5150-8786-4908-96f7-5a51f306aab2{stroke:#4d5152;stroke-miterlimit:10;}.\30 0aeb009-141a-46f7-b174-221299d0ce85,.\39 58c5150-8786-4908-96f7-5a51f306aab2,.bb67adb7-bce8-47ea-a4f6-33b9687f37e8,.fb19d5f6-fdc3-43e1-91f6-378aebae0abb{stroke-width:2px;}.\39 58c5150-8786-4908-96f7-5a51f306aab2{fill:#b3b3b3;}.fb19d5f6-fdc3-43e1-91f6-378aebae0abb{stroke:#efc59c;}.bb67adb7-bce8-47ea-a4f6-33b9687f37e8,.fb19d5f6-fdc3-43e1-91f6-378aebae0abb{stroke-linecap:round;stroke-linejoin:round;}.bb67adb7-bce8-47ea-a4f6-33b9687f37e8{stroke:#896949;}</style></defs><title>icon-appeal</title><g id="23181d5e-11d9-4861-b6ab-8ac575031deb" data-name="Layer 2"><g id="bb4a5682-67ce-4f40-a7de-977885c4e9df" data-name="Layer 1"><circle class="525d330f-a957-470f-ba5c-2d9ffae36821" cx="55" cy="55" r="55"/><path class="dd54d990-8f3b-483d-884a-f2a62514c373" d="M59,64.7l.4.34a1.54,1.54,0,0,0,2.16-.17L74,50.28a1.54,1.54,0,0,0-.17-2.16l-.4-.34a1.53,1.53,0,0,0-1.53-.26L52,30.64a1.53,1.53,0,0,0-.5-1.47l-.4-.34a1.54,1.54,0,0,0-2.16.17L36.54,43.59a1.54,1.54,0,0,0,.17,2.16l.4.34a1.53,1.53,0,0,0,1.53.26L46,52.59,25.38,75.68a1.37,1.37,0,0,0,.12,2l4.2,3.57a1.37,1.37,0,0,0,2-.19L51.14,57l7.33,6.24A1.53,1.53,0,0,0,59,64.7Z"/><path class="00aeb009-141a-46f7-b174-221299d0ce85" d="M59,64.7l.4.34a1.54,1.54,0,0,0,2.16-.17L74,50.28a1.54,1.54,0,0,0-.17-2.16l-.4-.34a1.53,1.53,0,0,0-1.53-.26L52,30.64a1.53,1.53,0,0,0-.5-1.47l-.4-.34a1.54,1.54,0,0,0-2.16.17L36.54,43.59a1.54,1.54,0,0,0,.17,2.16l.4.34a1.53,1.53,0,0,0,1.53.26L46,52.59,25.38,75.68a1.37,1.37,0,0,0,.12,2l4.2,3.57a1.37,1.37,0,0,0,2-.19L51.14,57l7.33,6.24A1.53,1.53,0,0,0,59,64.7Z"/><polygon class="958c5150-8786-4908-96f7-5a51f306aab2" points="79.28 72.79 57.09 72.79 55.83 76.5 80.53 76.5 79.28 72.79"/><polygon class="958c5150-8786-4908-96f7-5a51f306aab2" points="83.28 76.5 80.53 76.5 55.83 76.5 53.09 76.5 51.38 81.54 84.98 81.54 83.28 76.5"/><line class="fb19d5f6-fdc3-43e1-91f6-378aebae0abb" x1="51.57" y1="35.54" x2="66.68" y2="48.4"/><line class="bb67adb7-bce8-47ea-a4f6-33b9687f37e8" x1="43.33" y1="45.38" x2="58.45" y2="58.24"/><path class="00aeb009-141a-46f7-b174-221299d0ce85" d="M59,64.7l.4.34a1.54,1.54,0,0,0,2.16-.17L74,50.28a1.54,1.54,0,0,0-.17-2.16l-.4-.34a1.53,1.53,0,0,0-1.53-.26L52,30.64a1.53,1.53,0,0,0-.5-1.47l-.4-.34a1.54,1.54,0,0,0-2.16.17L36.54,43.59a1.54,1.54,0,0,0,.17,2.16l.4.34a1.53,1.53,0,0,0,1.53.26L46,52.59,25.38,75.68a1.37,1.37,0,0,0,.12,2l4.2,3.57a1.37,1.37,0,0,0,2-.19L51.14,57l7.33,6.24A1.53,1.53,0,0,0,59,64.7Z"/></g></g></svg>