<svg xmlns="http://www.w3.org/2000/svg" viewBox="0 0 110 110"><defs><style>.\32 e2ee26e-17cb-40c5-a6e9-d646c4efcd16{fill:#fbb03b;}.b4c2b2dc-ac87-401b-a7a9-13bcfa3458aa{fill:#f6f6fd;}.\39 0574e90-daea-4374-bc2e-1c78e9e9593d{fill:#ffb957;}.\39 5542a15-c143-439d-9c89-d8492070453d{fill:#fff;}.\30 3130fe7-9bbe-42d9-929a-63a7083a0223{fill:none;stroke:#4d5152;stroke-linejoin:round;stroke-width:2px;}</style></defs><title>icon-default-plan</title><g id="9e4de264-a9bd-4d75-9a87-fa58df72cb43" data-name="Layer 2"><g id="c2644e97-ce33-4b47-a6e1-bbdb4b78bb66" data-name="Layer 1"><circle class="2e2ee26e-17cb-40c5-a6e9-d646c4efcd16" cx="55" cy="55" r="55"/><circle class="b4c2b2dc-ac87-401b-a7a9-13bcfa3458aa" cx="55" cy="55" r="55"/><rect class="90574e90-daea-4374-bc2e-1c78e9e9593d" x="72" y="34" width="6" height="6"/><circle class="90574e90-daea-4374-bc2e-1c78e9e9593d" cx="78" cy="34" r="6"/><path class="95542a15-c143-439d-9c89-d8492070453d" d="M36,82V34a6,6,0,0,1,6-6H78a6,6,0,0,0-6,6V76a6,6,0,0,1-6,6Z"/><path class="90574e90-daea-4374-bc2e-1c78e9e9593d" d="M66,82a6,6,0,0,1,0-12H32a6,6,0,0,0,0,12H66"/><path class="03130fe7-9bbe-42d9-929a-63a7083a0223" d="M66,82a6,6,0,0,1,0-12H32a6,6,0,0,0,0,12H66"/><path class="03130fe7-9bbe-42d9-929a-63a7083a0223" d="M66,82"/><path class="03130fe7-9bbe-42d9-929a-63a7083a0223" d="M36,67V34a6,6,0,0,1,6-6H78a6,6,0,0,0-6,6V76a6,6,0,0,1-6,6"/><path class="03130fe7-9bbe-42d9-929a-63a7083a0223" d="M77,40h1a6,6,0,0,0,0-12"/><line class="03130fe7-9bbe-42d9-929a-63a7083a0223" x1="53" y1="36" x2="55" y2="36"/><line class="03130fe7-9bbe-42d9-929a-63a7083a0223" x1="57" y1="36" x2="59" y2="36"/><line class="03130fe7-9bbe-42d9-929a-63a7083a0223" x1="49" y1="36" x2="51" y2="36"/><line class="03130fe7-9bbe-42d9-929a-63a7083a0223" x1="43" y1="44" x2="65" y2="44"/><line class="03130fe7-9bbe-42d9-929a-63a7083a0223" x1="43" y1="48" x2="65" y2="48"/><line class="03130fe7-9bbe-42d9-929a-63a7083a0223" x1="43" y1="52" x2="65" y2="52"/><line class="03130fe7-9bbe-42d9-929a-63a7083a0223" x1="43" y1="56" x2="65" y2="56"/><line class="03130fe7-9bbe-42d9-929a-63a7083a0223" x1="43" y1="60" x2="65" y2="60"/></g></g></svg>