<svg xmlns="http://www.w3.org/2000/svg" viewBox="0 0 110 110"><defs><style>.\35 dd332fc-996a-4a1c-8d03-c3fc20c9c17d{fill:#fbb03b;}.\33 c086565-e47d-4da2-acc7-20e626fb0f98{fill:#f6f6fd;}.a4518c6c-8ecf-4d46-bccb-6c32cd223261,.c46bdd78-9a80-4f68-a2a5-db11cf9b3a4f{fill:none;stroke:#4d5152;stroke-width:2px;}.a4518c6c-8ecf-4d46-bccb-6c32cd223261{stroke-linejoin:round;}.\30 d85fc83-ace6-4cdb-848f-4a3dd698aef7{fill:#67dde0;}.e27302d5-5215-43c1-ad86-d505824f341e{fill:#fff;}.c46bdd78-9a80-4f68-a2a5-db11cf9b3a4f{stroke-miterlimit:10;}.a10fd0fa-aa6c-4fa4-a6f9-0d10b09f70ac{fill:#ffb957;}</style></defs><title>icon-member-patient</title><g id="ae879bad-d53f-441c-a636-913affb0b0f9" data-name="Layer 2"><g id="6bc009de-e1f4-4bb6-92dd-fc569818135a" data-name="Layer 1"><circle class="5dd332fc-996a-4a1c-8d03-c3fc20c9c17d" cx="55" cy="55" r="55"/><circle class="3c086565-e47d-4da2-acc7-20e626fb0f98" cx="55" cy="55" r="55"/><path class="a4518c6c-8ecf-4d46-bccb-6c32cd223261" d="M80.29,70.66a34.93,34.93,0,0,1-50.59,0"/><path class="0d85fc83-ace6-4cdb-848f-4a3dd698aef7" d="M64.64,63.43l12,3.61,3.61,3.61a34.93,34.93,0,0,1-50.59,0L33.32,67l12-3.61"/><polygon class="e27302d5-5215-43c1-ad86-d505824f341e" points="59.82 68.25 55 65.84 50.18 68.25 45.36 63.43 47.77 59.82 48.98 59.82 48.98 55 55 56.2 61.02 55 61.02 59.82 62.23 59.82 64.64 63.43 59.82 68.25"/><path class="c46bdd78-9a80-4f68-a2a5-db11cf9b3a4f" d="M63.43,63.43"/><polygon class="c46bdd78-9a80-4f68-a2a5-db11cf9b3a4f" points="59.82 68.25 55 65.84 50.18 68.25 45.36 63.43 47.77 59.82 55 61.02 62.23 59.82 64.64 63.43 59.82 68.25"/><line class="c46bdd78-9a80-4f68-a2a5-db11cf9b3a4f" x1="61.02" y1="55" x2="61.02" y2="59.82"/><line class="c46bdd78-9a80-4f68-a2a5-db11cf9b3a4f" x1="48.98" y1="59.82" x2="48.98" y2="55"/><line class="c46bdd78-9a80-4f68-a2a5-db11cf9b3a4f" x1="53.8" y1="71.86" x2="56.2" y2="71.86"/><line class="c46bdd78-9a80-4f68-a2a5-db11cf9b3a4f" x1="53.8" y1="76.68" x2="56.2" y2="76.68"/><path class="e27302d5-5215-43c1-ad86-d505824f341e" d="M65.84,39.34v4.82C64.64,52.59,61,55,61,55a15.66,15.66,0,0,1-12,0s-3.61-2.41-4.82-10.84V39.34L49,36.93l12,4.82Z"/><path class="a10fd0fa-aa6c-4fa4-a6f9-0d10b09f70ac" d="M44.16,39.34C44.16,32,47.68,28.5,55,28.5S65.84,32,65.84,39.34L61,41.75l-6-2.41-6-2.41Z"/><path class="c46bdd78-9a80-4f68-a2a5-db11cf9b3a4f" d="M65.84,39.34v4.82C64.64,52.59,61,55,61,55a15.66,15.66,0,0,1-12,0s-3.61-2.41-4.82-10.84V39.34"/><path class="c46bdd78-9a80-4f68-a2a5-db11cf9b3a4f" d="M44.16,39.34C44.16,32,47.68,28.5,55,28.5S65.84,32,65.84,39.34"/><polyline class="c46bdd78-9a80-4f68-a2a5-db11cf9b3a4f" points="44.16 39.34 48.98 36.93 55 39.34 61.02 41.75 65.84 39.34"/><path class="a4518c6c-8ecf-4d46-bccb-6c32cd223261" d="M64.64,63.43l12,3.61,3.61,3.61a34.93,34.93,0,0,1-50.59,0L33.32,67l12-3.61"/></g></g></svg>