<svg xmlns="http://www.w3.org/2000/svg" viewBox="0 0 110 110"><defs><style>.b6a311e9-a7c7-4e35-8f57-0b9572c51c9f{fill:#f6f6fd;}.\35 caab268-59dd-4131-9279-5100571ead3c{fill:#67dde0;}.\39 40448aa-6773-4eed-8cfe-5143a60595e8{fill:#acf0f2;}.\34 1f0c000-ffd4-4a9d-98d8-5999bde27110{fill:#f28c13;}.\35 db2f8c4-eaca-4d9e-a82e-169c41dcec22{fill:#ffb957;}.\39 9af4028-5d42-4b64-bef0-d6ad6c14138a{fill:#fff;}.\35 8965db4-8f39-4df0-90f3-bf2f23b8e724{fill:none;stroke:#4d5152;stroke-miterlimit:10;stroke-width:2px;}</style></defs><title>icon-workflows</title><g id="b811f741-eaa2-445f-9cc2-e1d17a9cd7eb" data-name="Layer 2"><g id="f05589af-b9e2-4513-aaab-a3d524ab21e6" data-name="Layer 1"><circle class="b6a311e9-a7c7-4e35-8f57-0b9572c51c9f" cx="55" cy="55" r="55"/><circle class="5caab268-59dd-4131-9279-5100571ead3c" cx="35" cy="74" r="7"/><circle class="940448aa-6773-4eed-8cfe-5143a60595e8" cx="35" cy="54" r="7"/><circle class="41f0c000-ffd4-4a9d-98d8-5999bde27110" cx="75" cy="74" r="7"/><rect class="5db2f8c4-eaca-4d9e-a82e-169c41dcec22" x="48" y="67" width="14" height="14"/><rect class="940448aa-6773-4eed-8cfe-5143a60595e8" x="68" y="47" width="14" height="14"/><rect class="99af4028-5d42-4b64-bef0-d6ad6c14138a" x="50.05" y="49.05" width="9.9" height="9.9" transform="translate(-22.07 54.71) rotate(-45)"/><rect class="99af4028-5d42-4b64-bef0-d6ad6c14138a" x="42" y="27" width="26" height="14"/><circle class="58965db4-8f39-4df0-90f3-bf2f23b8e724" cx="35" cy="74" r="7"/><circle class="58965db4-8f39-4df0-90f3-bf2f23b8e724" cx="35" cy="54" r="7"/><circle class="58965db4-8f39-4df0-90f3-bf2f23b8e724" cx="75" cy="74" r="7"/><rect class="58965db4-8f39-4df0-90f3-bf2f23b8e724" x="48" y="67" width="14" height="14"/><rect class="58965db4-8f39-4df0-90f3-bf2f23b8e724" x="68" y="47" width="14" height="14"/><rect class="58965db4-8f39-4df0-90f3-bf2f23b8e724" x="50.05" y="49.05" width="9.9" height="9.9" transform="translate(-22.07 54.71) rotate(-45)"/><rect class="58965db4-8f39-4df0-90f3-bf2f23b8e724" x="42" y="27" width="26" height="14"/><line class="58965db4-8f39-4df0-90f3-bf2f23b8e724" x1="42" y1="74" x2="48" y2="74"/><line class="58965db4-8f39-4df0-90f3-bf2f23b8e724" x1="55" y1="67" x2="55" y2="61"/><line class="58965db4-8f39-4df0-90f3-bf2f23b8e724" x1="48" y1="54" x2="42" y2="54"/><line class="58965db4-8f39-4df0-90f3-bf2f23b8e724" x1="62" y1="54" x2="68" y2="54"/><line class="58965db4-8f39-4df0-90f3-bf2f23b8e724" x1="75" y1="61" x2="75" y2="67"/><path class="58965db4-8f39-4df0-90f3-bf2f23b8e724" d="M68,34h1a6,6,0,0,1,6,6v7"/><line class="58965db4-8f39-4df0-90f3-bf2f23b8e724" x1="54" y1="34" x2="56" y2="34"/><line class="58965db4-8f39-4df0-90f3-bf2f23b8e724" x1="50" y1="34" x2="52" y2="34"/><line class="58965db4-8f39-4df0-90f3-bf2f23b8e724" x1="58" y1="34" x2="60" y2="34"/><path class="58965db4-8f39-4df0-90f3-bf2f23b8e724" d="M35,47V40a6,6,0,0,1,6-6h1"/></g></g></svg>