<svg xmlns="http://www.w3.org/2000/svg" viewBox="0 0 110 110"><defs><style>.\34 0060e20-6867-48b9-bc97-9d83ba0c8dfc{isolation:isolate;}.\32 639cfc0-a552-4848-bbc8-20b1d4bdb9cf{fill:#fbb03b;}.\35 3d2a71b-7052-4d58-aace-eeb61e618abb{fill:#f6f6fd;}.\38 0546af9-f41d-4df2-8cf8-eb56270052df{fill:#f28c13;}.\34 95c460d-9996-4eef-8676-0874f1b1bd03{fill:#ffb957;}.\36 0ad8acb-6c6b-4b52-8b8c-24110e2072ee{fill:none;stroke:#4d5152;stroke-miterlimit:10;stroke-width:2px;}.f7c52e92-86a9-40eb-b13e-1315f2cae68f{fill:#f2f2f2;}.f5c97707-27c2-4b8a-ae5a-888b6d001b0e{fill:#fff;}.\32 cd391bf-f67f-4521-8c69-16efa400b9a3{fill:#e6e6e6;mix-blend-mode:multiply;}.\32 c8ea56c-11e7-47d1-8c52-6c7bd6ec399f{fill:#67dde0;}.\31 810024e-cd2e-482c-ade3-bdccbd563a09{fill:#acf0f2;}</style></defs><title>icon-prescription</title><g class="40060e20-6867-48b9-bc97-9d83ba0c8dfc"><g id="9b0142e1-148a-4a8a-8705-b10ce6060f2d" data-name="Layer 2"><g id="bf72d2bd-65a5-4d6e-8a4b-a96d85fc47e4" data-name="Layer 1"><circle class="2639cfc0-a552-4848-bbc8-20b1d4bdb9cf" cx="55" cy="55" r="55"/><circle class="53d2a71b-7052-4d58-aace-eeb61e618abb" cx="55" cy="55" r="55"/><path class="80546af9-f41d-4df2-8cf8-eb56270052df" d="M54.79,37.58c-.21.21-.41.44-.6.68v-.68H40.78V86H59.44V37.58Z"/><polygon class="495c460d-9996-4eef-8676-0874f1b1bd03" points="59.44 37.58 59.44 86 60.15 86 69.17 86 69.17 73.72 69.17 65.09 69.17 37.58 59.44 37.58"/><rect class="60ad8acb-6c6b-4b52-8b8c-24110e2072ee" x="40.78" y="37.58" width="28.39" height="48.42"/><rect class="f7c52e92-86a9-40eb-b13e-1315f2cae68f" x="38.81" y="24" width="20.63" height="13.58"/><rect class="f5c97707-27c2-4b8a-ae5a-888b6d001b0e" x="59.44" y="24" width="11.75" height="13.58"/><line class="60ad8acb-6c6b-4b52-8b8c-24110e2072ee" x1="45.26" y1="37.58" x2="45.26" y2="31.88"/><line class="60ad8acb-6c6b-4b52-8b8c-24110e2072ee" x1="64.71" y1="37.58" x2="64.71" y2="31.88"/><line class="60ad8acb-6c6b-4b52-8b8c-24110e2072ee" x1="54.98" y1="37.58" x2="54.98" y2="29.38"/><rect class="60ad8acb-6c6b-4b52-8b8c-24110e2072ee" x="38.81" y="24" width="32.38" height="13.58"/><path class="2cd391bf-f67f-4521-8c69-16efa400b9a3" d="M66.13,73.32A3,3,0,0,0,61,71.19l-3.75,3.75h0l-4.12,4.12a3,3,0,0,0,4.27,4.27l4.12-4.12h0l3.75-3.75A3,3,0,0,0,66.13,73.32Z"/><path class="2cd391bf-f67f-4521-8c69-16efa400b9a3" d="M62.73,67a3,3,0,0,0,2.13-5.15L61.11,58.1h0L57,54a3,3,0,0,0-4.27,4.27l4.12,4.12h0l3.75,3.75A3,3,0,0,0,62.73,67Z"/><path class="2cd391bf-f67f-4521-8c69-16efa400b9a3" d="M60.07,43.36a3,3,0,0,0-4.19-3.68L51.13,42h0L45.9,44.6A3,3,0,0,0,48.57,50l5.23-2.57h0l4.76-2.34A3,3,0,0,0,60.07,43.36Z"/><path class="2cd391bf-f67f-4521-8c69-16efa400b9a3" d="M50.08,75.24a3,3,0,0,0,4-3.93L52,66.4h0L49.8,61a3,3,0,0,0-5.58,2.29l2.21,5.39h0l2,4.91A3,3,0,0,0,50.08,75.24Z"/><rect class="495c460d-9996-4eef-8676-0874f1b1bd03" x="69.17" y="51.05" width="0.01" height="16.14"/><rect class="2c8ea56c-11e7-47d1-8c52-6c7bd6ec399f" x="54.19" y="51.05" width="5.25" height="16.14"/><rect class="1810024e-cd2e-482c-ade3-bdccbd563a09" x="59.44" y="51.05" width="9.74" height="16.14"/><rect class="60ad8acb-6c6b-4b52-8b8c-24110e2072ee" x="54.19" y="51.05" width="14.99" height="16.14"/></g></g></g></svg>